<svg width="75" height="74" viewBox="0 0 75 74" fill="none" xmlns="http://www.w3.org/2000/svg">
<path d="M74.11 26.7401C75.84 19.0201 74.75 12.9401 70.95 9.14006C68.03 6.22006 64.87 4.95006 61.57 5.38006C58.35 5.79006 55.49 7.80006 53.35 9.94006C32.42 -6.88994 15.79 2.60006 14.75 3.23006C4.61 -0.359944 0.22 5.04006 0 5.28006V69.0201C0.08 69.0701 5.18 72.4901 11.97 72.4901C13.72 72.4901 15.59 72.2501 17.51 71.6801C18.55 72.1401 22.98 73.9101 29.21 73.9101C35.82 73.9101 44.45 71.91 53.16 64.2101C54.5 65.4701 58.62 68.9501 63.32 68.9501C63.59 68.9501 63.87 68.9401 64.15 68.9101C67.23 68.6301 69.9 66.8101 72.09 63.5001C75.79 57.9001 75.26 48.9701 70.53 36.9501C71.06 35.8701 73 31.7501 74.12 26.7401H74.11ZM61.75 6.74006C64.61 6.37006 67.38 7.51006 69.98 10.1101C77.02 17.1501 71.76 30.8401 69.81 35.2101C69.68 34.8901 69.56 34.5901 69.42 34.2701C68.48 32.0801 67.49 29.9901 66.51 28.0301C67.2 26.3201 70.39 17.7401 65.7 14.6501C64.45 13.8301 63.17 13.5601 61.89 13.8601C58.91 14.5501 56.81 18.0601 55.69 19.9501L55.39 20.4601C54.36 22.1301 49.1 32.4301 47.33 35.9001C46.23 34.0201 45.05 32.0801 43.81 30.1601C44.69 28.2101 49.21 18.2601 51.26 14.7701C52.73 12.2701 56.81 7.37006 61.74 6.74006H61.75ZM59.99 16.4901C60.67 15.8701 61.41 15.3901 62.2 15.2101C63.11 15.0001 64.01 15.2001 64.95 15.8101C68.1 17.8801 66.58 23.6701 65.66 26.3701C63.09 21.4301 60.76 17.6901 59.99 16.4901ZM54.42 49.2301C53.46 47.2401 51.18 42.6201 48.15 37.3201C48.94 35.7701 52.44 28.9001 54.72 24.5701C55.84 26.3001 59.08 31.4801 61.89 37.3701C59.47 42.0101 56.96 45.9201 54.43 49.2301H54.42ZM42.26 27.8201C36.63 19.5701 32.21 13.7601 22.04 7.11006C26.76 7.07006 38.6 8.06005 48.01 17.9901C46.12 21.7901 43.9 26.6301 42.92 28.8001C42.7 28.4701 42.48 28.1501 42.26 27.8201ZM26.23 1.38006C32.27 0.980056 41.67 2.35006 52.41 10.9401C51.39 12.0901 50.59 13.2201 50.08 14.0801C49.68 14.7601 49.2 15.6601 48.67 16.6901C37.06 4.76006 22.07 5.64006 20.03 5.82006C19.4 5.43006 18.77 5.04006 18.1 4.64006C17.53 4.36006 16.97 4.11006 16.43 3.88006C18.02 3.10006 21.47 1.69006 26.23 1.37006V1.38006ZM17.45 5.86006C30.24 13.4401 34.93 19.5101 41.13 28.6001C47.4 37.8001 52.46 48.2801 53.48 50.4501C52.01 52.2901 50.54 53.9301 49.07 55.3901C46.8 50.6801 40.68 37.3401 40.62 37.2001C29.52 10.1101 9.88 5.60006 2.67 4.82006C4.88 3.50006 9.1 1.74006 17.44 5.85006L17.45 5.86006ZM48.03 56.3901C38.35 65.5401 29.36 67.0701 25.51 67.2601C34.02 60.6301 41.5 49.9801 43.58 46.9001C45.3 50.6101 47.1 54.4701 48.04 56.4001L48.03 56.3901ZM2.84 69.0101C26.39 67.2301 37.45 45.1801 40.02 39.2001C40.67 40.6101 41.73 42.9201 42.89 45.4301C41.92 46.9001 32.04 61.6701 21.77 68.2201C14.06 73.1301 6.4 70.6801 2.84 69.0101ZM19.47 70.9701C20.48 70.5401 21.5 70.0201 22.52 69.3701C22.9 69.1301 23.27 68.8801 23.65 68.6201C23.88 68.6401 24.25 68.6601 24.76 68.6601C26.9 68.6601 31.32 68.29 36.87 65.7701C43.78 62.64 53.79 55.4401 62.62 38.9301C63.82 41.5901 64.89 44.3301 65.6 46.9301L65.18 46.6901C56.59 61.7201 45.69 70.5801 33.66 72.3001C27.17 73.2301 21.96 71.8501 19.47 70.9701ZM66.49 51.8501C66.75 55.8801 65.99 58.4101 64.31 59.1601C62.66 59.9001 60.47 58.8001 59.33 57.7301C61.56 55.0001 63.76 51.8201 65.9 48.1601C66.2 49.4501 66.41 50.6901 66.48 51.8501H66.49ZM70.93 62.7401C68.99 65.6901 66.66 67.3001 64.02 67.5401C59.68 67.9401 55.55 64.5501 54.17 63.2801C55.6 61.9501 57.02 60.4501 58.44 58.7801C59.65 59.8901 61.44 60.7601 63.13 60.7601C63.73 60.7601 64.32 60.6501 64.86 60.4101C66.43 59.7101 68.22 57.6401 67.85 51.7601C67.15 40.7801 55.92 23.8901 55.45 23.1701C55.96 22.2201 56.35 21.5101 56.56 21.1701L56.88 20.6501C57.36 19.8501 58.1 18.6101 59.02 17.5101C61.97 22.1801 79.11 50.3601 70.94 62.7401H70.93Z" fill="white"/>
</svg>
