<svg width="660" height="635" viewBox="0 0 660 635" fill="none" xmlns="http://www.w3.org/2000/svg">
<path d="M626.744 177.64L615.493 175.168C615.024 166.987 619.03 162.471 613.448 154.844C609.143 148.963 603.774 145.768 600.62 154.46C593.248 174.529 612.936 182.753 629.556 180.878L637.525 173.549L634.201 182.668L639.187 180.196L635.054 192.638L640.849 188.505C638.037 198.604 637.099 208.958 640.082 219.142L649.159 218.375C645.878 222.252 643.619 227.237 644.173 232.478C648.776 228.857 651.205 222.337 657.853 221.655C659.089 221.528 660.282 221.187 659.941 222.891C649.5 231.797 650.608 247.264 649.969 259.791L641.702 261.496C639.869 255.53 644.003 249.309 644.216 244.494C644.386 240.276 638.804 246.625 638.42 248.67C636.801 257.107 643.747 266.992 630.281 268.782C625.763 269.378 617.326 268.356 615.962 263.2C619.414 263.541 625.209 263.2 626.957 259.663C629.769 254.039 618.647 254.422 615.962 251.141C633.946 238.785 622.354 219.695 603.476 218.332C606.416 214.923 609.314 211.727 608.419 206.742L601.004 205.89C600.152 201.842 605.734 198.604 602.325 195.024L593.546 194.257C598.191 185.267 594.228 180.367 584.427 181.815C585.705 177.895 587.58 174.955 587.793 170.652C588.773 149.56 558.985 150.455 559.454 169.799C559.582 174.7 562.522 178.194 565.335 181.815C550.377 183.392 542.11 168.819 541.257 155.653C540.021 136.053 561.073 121.438 579.441 123.696C571.131 130.897 574.881 143.978 585.662 145.299C608.632 148.111 607.141 115.089 585.279 118.711C583.787 117.177 592.481 102.86 594.058 100.516C599.811 91.9943 607.609 85.0063 616.388 79.6801C616.772 83.941 614.683 88.202 614.3 92.5482C613.959 96.3405 614.002 102.05 614.257 105.842C614.513 109.848 617.07 117.773 616.772 120.671C616.516 123.227 611.871 128.809 611.146 132.559C610.081 138.055 617.624 142.529 619.712 136.905C622.312 129.917 621.033 126.679 626.062 119.222C627.511 117.091 636.119 105.97 637.397 112.532C637.568 113.299 632.71 121.267 631.9 123.398C629.514 129.917 628.15 137.757 630.281 144.575C631.005 146.833 633.264 148.75 633.136 151.307C633.008 153.863 629.897 165.283 629.002 168.649C628.193 171.589 625.763 173.89 626.744 177.597V177.64ZM617.624 209.98C619.115 209.554 619.669 207.381 619.883 206.06C622.653 189.656 609.57 181.262 595.166 179.301C594.697 181.645 597.85 181.517 598.362 183.179C599.001 185.139 597.765 187.951 599.257 189.783C600.876 191.786 604.797 190.039 606.629 193.192C609.655 198.305 604.839 199.839 605.138 201.331C609.783 203.717 616.985 203.333 617.581 210.066L617.624 209.98ZM635.863 226.598C631.133 220.164 624.996 216.159 618.008 212.58C612.041 217.991 619.499 219.951 623.675 222.593C627.852 225.235 629.045 228.004 635.863 226.598Z" fill="#294E76"/>
<path d="M119.536 68.8998L106.666 81.3845C105.643 89.8638 107.178 100.133 100.018 106.269C96.4811 95.7865 99.5494 86.9237 106.24 78.7001C111.354 72.4364 111.737 73.8426 115.147 65.7893C116.638 62.3379 138.756 49.6403 142.378 49.8533C143.656 49.9385 145.233 51.2168 145.105 52.5803L141.099 61.4431C144.466 60.1222 147.449 56.8839 151.412 57.31C153.756 57.5657 158.742 62.1249 159.594 64.1702C160.745 66.8972 157.805 67.3659 156.867 68.7294C154.949 71.499 154.054 74.9078 151.497 77.2087C141.824 65.065 137.349 93.7413 136.923 100.005C136.71 103.584 137.903 106.865 136.923 110.402L139.395 108.74C139.309 110.359 139.693 111.85 140.204 113.342C143.955 124.207 155.546 146.705 169.907 139.632C171.697 138.737 177.919 132.516 178.43 130.726C179.538 127.019 173.103 133.411 172.379 133.837C152.989 145.384 141.866 115.259 140.204 100.9L141.057 92.9743C141.866 104.692 145.105 115.728 152.648 124.932C153.841 126.423 158.827 131.536 160.191 132.303C167.095 136.266 179.666 126.338 177.962 118.668C185.334 123.824 195.945 144.148 183.203 147.983C176.001 150.156 151.455 150.071 148.088 156.889C147.577 157.954 147.918 160.17 147.236 160.17C137.307 158.934 135.304 146.364 142.676 140.655C141.483 138.865 140.247 139.334 138.5 139.76C131.554 141.379 129.338 151.946 130.318 158.039C131.298 164.132 137.094 162.556 136.923 156.846C142.037 159.957 142.335 162.13 148.983 161.874C161.086 161.405 170.035 147.515 176.555 164.942C178.473 170.013 179.197 175.467 179.24 180.921C177.621 179.941 178.089 177.384 176.768 175.509C176.214 174.742 174.851 173.549 173.998 173.208C167.052 170.524 151.199 186.886 136.923 181.304C123.584 176.106 119.92 154.034 127.931 143.296C131.468 138.524 138.159 135.797 143.784 138.737C146.085 139.93 146.341 144.362 149.239 140.527C149.537 131.025 142.761 123.568 138.969 115.344L138.116 119.52C110.757 104.223 83.6539 125.869 76.8354 152.841C74.9604 160.255 75.1734 168.18 73.5541 175.296C69.8465 191.616 44.0216 198.092 29.7455 194.641C17.3871 191.658 3.19615 178.833 5.2843 165.155C34.5184 189.57 42.2318 139.888 47.1752 120.713L45.5558 119.904L33.9644 137.757L44.8313 107.547C52.2464 97.7466 61.9201 89.6081 71.3381 81.6827H72.9148L77.8156 85.8585C77.8156 87.3072 65.585 101.88 67.5879 106.183C73.9802 96.5535 79.8185 86.7959 88.7677 79.2114C91.5803 76.8252 110.544 63.4458 112.845 65.5337C108.84 74.9078 98.5266 80.9584 95.9697 91.3977C95.4157 93.7413 94.5634 111.211 96.6942 111.169C104.067 109.209 105.643 99.6214 109.521 94.9343C112.121 91.8238 119.493 87.9037 119.493 82.4923V68.8146L119.536 68.8998ZM136.113 112.873C135.517 108.399 136.028 99.4936 133.514 95.957C131.767 93.4856 126.141 92.8891 123.329 91.3977C120.772 92.5908 121.028 95.7013 119.834 97.8318C116.042 104.522 110.885 107.078 106.197 112.83C114.848 110.018 122.263 102.008 131.383 108.825C133.343 110.274 133.684 112.745 136.071 112.83L136.113 112.873ZM77.1764 107.078C73.0427 108.442 72.787 114.876 68.8664 117.432C66.0964 119.222 62.815 118.455 60.1302 120.33C59.7893 129.661 71.3381 128.681 77.773 125.485C78.7957 124.974 84.634 121.608 82.4607 120.372C75.9831 119.051 77.1337 112.276 77.1764 107.078ZM85.4863 127.829C77.3468 131.323 71.8068 137.927 62.815 131.834C60.045 129.959 59.5336 126.593 56.4653 126.167C55.8687 142.529 49.2207 171.589 34.3053 180.793C24.8447 186.673 18.7507 180.068 11.7192 175.424C10.9948 174.955 9.88676 173.379 9.11968 174.7C24.9726 199.115 52.8004 179.77 60.9825 159.36L56.8488 173.464C65.3293 165.368 68.6533 153.182 74.8751 143.339L85.4863 127.829Z" fill="#294E76"/>
<path d="M265.238 537.01C273.676 537.904 274.443 540.972 280.324 544.339C289.273 549.494 297.199 542.038 303.251 543.785C305.978 544.552 310.495 551.071 315.95 551.923C336.917 555.204 363.679 545.489 379.021 531.257C382.302 528.232 386.606 521.457 389.163 519.582C391.422 517.921 396.706 516.813 399.604 515.321C409.491 510.208 415.414 502.794 422.574 494.741C419.889 508.972 412.005 522.395 402.246 532.919L400.584 530.448C386.265 545.745 371.052 562.405 353.281 573.611C344.076 579.406 333.976 585.329 322.683 584.903C316.419 584.69 311.987 581.494 314.629 574.804C316.461 573.484 319.189 576.338 321.064 576.765C333.891 579.534 370.966 557.888 380.64 548.685C381.62 547.747 383.027 547.066 382.728 545.404C363.935 559.252 341.945 569.308 317.996 568.626C318.592 561.042 312.37 553.883 304.7 557.42C294.813 561.979 300.31 575.657 310.495 574.847C306.617 579.492 300.907 583.284 294.728 580.642C286.247 577.02 288.506 566.24 285.395 558.442C278.619 541.526 258.632 540.461 242.993 538.799C236.558 520.69 218.787 504.072 218.361 536.243C218.148 536.541 217.381 535.774 217.125 535.433C215.037 532.706 206.94 513.319 206.301 509.739C204.383 499.172 207.366 491.929 218.19 489.159C223.73 487.753 227.523 488.136 232.935 489.713C238.816 491.417 252.666 499.513 257.056 499.684C260.848 499.811 271.928 492.27 277.298 493.079L269.542 497.34C266.516 498.107 260.55 507.524 259.314 507.907C254.627 509.441 244.782 499.982 249.896 517.111C248.447 518.56 236.6 507.524 233.319 507.992C231.913 509.143 257.482 531.13 259.868 532.493L249.513 528.743L247.425 537.052C253.178 537.478 259.655 536.456 265.28 537.052L265.238 537.01Z" fill="#294E76"/>
<path d="M531.285 144.447C529.964 160.127 538.7 176.148 552.976 182.923C556.343 184.5 559.838 184.969 562.821 186.332C566.826 188.164 570.704 191.616 575.264 192.553L566.997 200.436L575.264 205.421L568.702 212.154C568.275 214.454 573.858 215.946 575.307 217.054C575.605 218.886 570.619 223.488 569.852 226.556C567.934 234.012 571.045 241.469 576.969 246.028C578.546 247.221 581.103 247.392 581.87 248.968C573.73 252.249 569.085 261.368 576.074 268.483L587.665 272.233C583.319 273.938 578.247 276.707 574.455 279.349C572.58 280.627 569.085 284.76 567.338 285.527C565.591 286.294 565.889 281.394 564.823 279.775C561.968 275.344 552.721 276.835 548.289 276.409C539.723 275.557 534.396 267.163 533.757 258.982C542.536 266.523 549.866 268.27 554.085 255.658C560.264 237.208 549.312 219.269 537.891 205.421C540.831 204.825 544.155 204.526 546.158 202.012C543.772 192.766 531.371 195.493 524.637 198.391C529.709 191.999 539.254 169.842 525.831 167.754C514.197 165.922 500.347 168.777 492.25 177.682C495.361 159.318 513.685 146.833 531.243 144.489L531.285 144.447ZM544.581 207.509C561.627 213.091 558.857 195.408 545.391 195.067C547.351 197.283 553.19 202.822 548.715 205.464C546.882 206.529 543.899 204.612 544.539 207.509H544.581Z" fill="#294E76"/>
<path d="M305.893 538.671C302.739 538.032 297.327 532.877 294.301 531.172C286.29 526.698 283.903 531.428 275.892 531.726C273.505 531.811 265.11 531.044 263.192 529.936C258.59 527.252 259.101 514.469 261.615 510.166C263.32 507.268 270.607 501.431 273.676 499.811C284.883 493.889 297.924 497.212 310.112 496.317L318.763 498.022C313.777 500.621 309.472 500.152 304.231 500.536C302.995 500.621 301.844 499.897 302.185 501.771C303.592 505.18 317.058 512.381 320.936 512.935C328.053 513.915 338.408 513.532 344.801 510.379C349.744 507.95 353.494 503.391 358.651 501.388C353.153 520.775 322.683 529.723 305.296 523.588C294.898 519.923 285.736 506.544 276.062 506.288C266.388 506.032 258.845 516.557 263.831 525.164C264.513 526.315 264.812 527.422 266.474 527.082C260.806 514.427 269.755 504.413 282.156 513.489C297.412 524.61 301.418 533.047 323.919 530.192C334.701 528.829 365.597 515.62 376.336 510.421C381.535 507.865 386.393 503.732 391.805 501.388C393.553 503.604 379.276 523.034 376.847 525.846C364.83 539.865 348.551 548.94 329.843 550.261C325.198 550.602 315.652 551.028 315.481 544.594L332.059 538.757C324.473 537.691 312.967 540.205 305.893 538.757V538.671Z" fill="#294E76"/>
<path d="M100.444 178.023C103.427 209.853 140.673 217.565 137.818 255.232C137.434 260.43 135.772 266.779 131.17 269.719C132.363 265.245 134.92 261.964 135.346 256.894C137.648 230.604 108.371 226.172 93.3702 210.833C70.4431 187.397 72.2756 145.895 100.189 127.105C113.527 118.114 138.883 115.472 146.128 133.198C143.571 132.644 141.866 130.258 139.48 129.065C123.073 120.926 104.28 132.729 96.6942 147.685C95.0748 150.881 88.8529 169.544 96.5663 167.541C98.7397 166.987 97.8874 163.706 100.444 164.303C100.743 168.734 100.018 173.634 100.444 177.981V178.023Z" fill="#294E76"/>
<path d="M249.768 581.963C248.064 597.302 271.928 593.425 273.846 582.9C274.485 579.278 270.266 576.381 271.076 572.717C273.974 574.421 278.235 580.045 281.645 579.193C283.094 578.852 284.457 576.551 286.418 576.85C288.421 588.141 304.785 586.309 313.99 588.738C329.203 592.743 336.278 603.992 334.573 619.63C334.147 623.379 326.902 635.694 323.365 634.969C320.595 634.415 323.493 630.069 323.706 628.706C325.794 615.454 308.109 609.105 297.625 608.381C276.872 606.932 253.305 607.273 234.086 615.497L218.318 624.189C219 611.449 225.946 597.771 236.174 590.187C239.583 587.63 244.058 586.309 246.828 584.221C247.765 583.497 248.533 583.369 248.192 581.878C239.796 583.369 209.071 570.799 207.537 563.172C207.238 561.766 207.622 560.104 207.537 558.613C219.639 569.99 232.893 579.364 249.768 581.963ZM327.073 629.984C332.357 615.539 325.624 600.498 309.643 598.453C310.921 600.967 314.501 602.075 313.819 605.398C313.734 605.867 310.751 605.824 312.541 609.233C314.331 612.642 322.896 613.963 324.388 621.462C324.984 624.445 323.109 629.856 327.03 629.984H327.073ZM258.164 599.262C250.663 599.475 243.035 602.671 236.558 606.293C232.254 608.722 226.799 611.832 224.966 616.69C234.597 613.281 243.461 608.679 253.689 606.804C256.118 606.378 259.016 607.657 260.635 605.483C258.419 603.353 256.629 602.543 258.164 599.262Z" fill="#294E76"/>
<path d="M448.228 544.552V546.98C438.597 546.852 434.676 559.039 429.179 565.643C420.187 576.424 408.212 584.008 397.729 593.212L401.777 600.924L396.834 602.16C400.201 605.228 405.613 603.949 407.616 608.807C406.124 610.256 401.138 607.529 401.82 610.852C407.573 611.449 413.283 613.281 413.454 619.971C411.792 620.184 410.258 619.843 408.638 619.417C404.633 618.352 391.763 613.451 388.609 611.236C384.646 608.381 382.259 602.969 379.021 599.262C371.947 591.124 363.722 586.863 355.369 580.599C355.881 579.577 357.67 580.514 358.523 580.77C369.986 584.434 381.024 591.081 393.553 590.144C389.76 586.82 370.753 577.83 370.285 573.1C369.944 569.606 382.473 554.565 385.626 552.733C390.015 550.219 400.201 551.838 404.377 549.878C404.718 549.707 405.4 548.898 405.187 548.642C403.013 548.259 399.732 547.534 399.391 544.892C400.414 540.461 429.776 540.759 434.676 541.143C439.577 541.526 443.924 543.06 448.356 544.509L448.228 544.552ZM439.151 546.98C434.634 546.043 430.116 544.765 425.471 544.424C422.531 544.211 408.297 543.657 407.573 546.554C407.573 548.259 409.363 548.855 410.684 549.239C415.457 550.602 431.139 551.753 435.827 550.687C436.807 550.474 437.915 549.537 439.023 549.324L439.108 546.938L439.151 546.98ZM423.341 555.289C418.696 553.627 414.604 555.204 410.471 555.289C405.314 555.374 399.732 554.948 394.661 555.289C392.743 555.417 387.203 555.886 385.711 556.312C382.302 557.292 378.126 565.899 377.657 569.436C381.066 569.308 381.748 565.175 383.453 563.215C388.993 556.738 404.419 558.357 412.516 557.846L393.68 566.794C391.677 568.072 388.567 570.288 389.248 573.1L390.953 573.995L385.967 577.318C389.632 582.815 395.129 577.617 399.348 574.932C404.547 571.651 410.982 567.007 415.755 563.129C416.82 562.277 424.577 556.568 423.298 555.332L423.341 555.289ZM429.179 556.099C427.858 554.82 417.843 564.791 416.309 566.027C407.914 572.802 399.519 578.384 390.186 583.88C391.507 585.712 391.72 584.903 393.254 584.477C402.118 581.835 414.86 571.225 421.764 564.834C422.787 563.896 430.159 557.036 429.222 556.099H429.179Z" fill="#294E76"/>
<path d="M623.42 433.255C592.822 437.9 559.411 449.617 540.405 475.183C541.044 476.419 542.408 474.927 543.175 474.629C558.9 467.982 572.58 460.397 590.691 459.801C595.123 459.673 601.601 463.039 604.328 466.448C591.799 467.939 579.1 467.854 566.784 470.837C549.141 475.183 533.8 485.537 520.887 497.979L519.992 495.38C510.404 492.951 500.858 497.51 491.44 498.789C493.699 489.074 502.307 484.77 510.787 481.191C517.521 478.379 524.68 475.78 532.095 476.334V479.657C533.16 480.85 538.274 474.288 537.976 472.626L536.527 470.624C532.138 469.175 520.546 474.885 515.901 475.481C512.875 475.865 516.285 471.774 517.137 470.879C521.569 466.192 543.729 449.873 549.354 449.106C555.363 448.254 553.701 453.495 557.238 452.983C558.815 452.77 577.566 438.624 582.168 436.323C587.665 433.596 607.524 426.736 612.808 427.503C615.451 427.886 621.971 430.656 623.42 433.127V433.255Z" fill="#294E76"/>
<path d="M499.324 95.4457C498.344 95.3178 495.105 92.7186 498.727 96.0422C517.819 98.0875 535.206 105.459 551.229 115.77L548.033 118.412C548.587 121.48 549.78 131.408 547.735 133.411C546.882 134.22 531.797 137.97 530.305 137.587C524.808 136.266 512.151 118.412 509.083 113.086C508.316 111.765 503.543 98.9397 501.455 101.198C505.631 117.603 516.626 131.067 528.856 142.274C528.984 142.913 528.132 142.742 527.62 142.7C518.799 142.146 507.208 120.074 500.219 114.45C498.727 117.262 501.838 119.733 502.307 122.332C501.923 123.44 500.56 121.352 500.304 121.011C493.017 111.723 487.221 97.1074 485.729 85.3898C509.85 85.688 535.121 92.2925 552.976 109.038C552.422 110.189 550.846 108.91 550.079 108.612C539.169 104.777 523.657 95.3178 511.895 95.3178C508.06 95.3178 503.074 95.7439 499.452 95.3178L499.324 95.4457ZM522.975 108.74C522.89 107.589 521.782 107.419 520.93 107.035C519.055 106.226 509.679 103.499 508.912 105.928C508.529 108.186 510.319 110.402 511.512 112.319C514.878 117.731 526.001 131.962 532.052 133.283C537.124 134.391 549.567 131.706 544.155 124.505C541.811 127.446 540.916 127.36 537.592 126.082C534.268 124.804 517.904 113.129 516.753 110.402C516.753 107.675 521.185 108.996 522.975 108.74ZM545.391 121.182C546.542 120.117 541.683 114.492 539.595 115.387C538.956 116.026 542.962 122.545 545.391 121.182Z" fill="#294E76"/>
<path d="M524.637 53.9438C516.881 54.2847 514.495 65.8319 520.717 69.9225C528.26 74.9078 533.075 65.3206 534.908 65.6615C538.274 68.9424 542.365 71.8825 544.155 76.3565L550.377 100.431C546.542 97.917 542.621 95.6587 538.487 93.6561C530.603 89.8638 515.39 86.0715 509.424 82.0662C504.352 78.6574 498.386 64.2128 496.809 58.1196C493.485 44.9106 493.699 30.4659 501.795 19.0891C504.608 35.0251 510.915 45.2515 524.637 53.9438Z" fill="#294E76"/>
<path d="M51.4793 271.85C48.8798 291.067 29.916 308.963 12.0175 314.587C11.4635 314.758 10.6112 314.758 10.7817 314.204C13.5091 309.304 17.2592 305.085 20.0292 300.228C21.7338 297.245 23.6089 290.854 25.3135 288.894C27.0181 286.934 27.4017 291.152 30.0864 290.428C34.7315 289.192 40.1862 272.105 40.6124 267.29C33.0269 274.747 24.589 280.372 14.4892 283.908C13.5091 284.249 11.4635 285.357 10.6964 284.292C14.404 277.858 19.0491 272.745 22.2026 265.927C24.3334 261.283 27.4017 248.244 29.4046 245.73C30.8109 243.94 37.1179 241.895 39.7175 240.276C43.8512 237.677 47.2604 234.183 51.3941 231.626C50.1582 244.153 53.0561 259.749 51.3941 271.892L51.4793 271.85Z" fill="#294E76"/>
<path d="M429.179 128.639C435.784 121.906 447.759 115.174 457.22 113.896C462.675 113.171 485.431 113.043 489.778 114.961C492.42 116.111 501.412 130.641 503.926 134.007C505.162 135.669 514.026 144.702 513.046 146.066C507.165 147.856 501.284 152.67 496.937 156.974C495.957 157.954 494.167 161.405 493.741 161.661C493.017 162.087 487.306 162.769 486.07 162.769C479.295 162.726 472.306 159.914 465.743 158.508C465.572 156.335 465.658 157.144 466.979 156.889C471.922 155.951 477.334 156.207 481.766 153.395C491.397 147.344 481.596 137.246 473.201 141.933C472.902 134.434 467.362 131.408 460.8 129.832C459.819 129.619 455.004 128.639 454.535 128.639H429.179ZM471.112 123.653C466.425 123.014 460.586 124.122 455.771 123.653L467.788 129.448C470.899 132.005 473.073 135.499 474.01 139.419C479.55 137.118 486.028 134.348 490.204 140.228C494.807 139.334 488.755 131.877 486.88 130.258C484.153 127.999 474.564 124.079 471.112 123.611V123.653Z" fill="#294E76"/>
<path d="M599.342 275.173C599.299 276.068 596.828 278.539 600.152 278.071C608.249 255.147 591.714 236.782 584.981 216.457C582.338 208.446 578.972 195.451 578.546 187.184C578.546 186.503 578.29 184.159 579.398 185.523C579.824 192.51 586.728 191.275 590.606 194.215C592.012 203.035 593.759 211.94 596.828 220.377C604.03 240.446 612.894 245.9 610.976 270.188C610.209 279.647 603.987 288.467 600.578 297.16C595.549 309.943 593.717 320.936 597.637 334.486C590.308 326.39 588.56 316.505 589.37 305.852C589.881 299.035 592.523 292.558 593.418 285.826C594.953 274.193 593.504 262.476 589.37 251.482C591.586 252.548 595.507 259.28 596.401 253.144C597.339 253.613 599.299 258.555 599.299 259.365C599.299 264.521 599.598 270.017 599.299 275.131L599.342 275.173Z" fill="#294E76"/>
<path d="M581.103 94.6361V78.4444C581.103 75.0782 584.341 62.2527 586.216 59.4831C586.813 58.5883 587.41 57.4804 588.177 58.9292C589.413 61.2727 590.648 74.9078 591.458 78.9131C592.396 83.6854 594.654 88.3298 595.08 93.2299C593.035 96.1274 590.521 98.7692 588.731 101.88C587.154 104.649 581.571 117.688 580.25 118.327C577.736 119.563 571.812 117.091 568.829 116.452C561.713 114.876 560.136 116.75 556.982 107.93C558.772 107.845 559.752 109.251 561.585 109.549C575.051 111.808 571.642 92.7612 559.241 96.4683C557.536 96.9796 555.363 101.539 554.084 99.6214C552.082 96.6387 548.118 76.2287 547.82 71.8399C547.223 62.551 548.246 50.109 554.937 43.1636C556.428 43.1636 558.133 61.5284 558.729 64.2554C561.116 75.1208 568.02 94.2526 581.06 94.5935L581.103 94.6361Z" fill="#294E76"/>
<path d="M145.276 136.947C124.138 128.426 110.288 146.066 112.164 166.306C112.547 170.694 115.147 185.48 121.454 183.307L126.141 175.978C127.505 186.545 132.321 195.323 142.932 198.604C153.543 201.885 157.506 198.348 166.839 194.215C156.611 223.743 129.806 219.056 113.868 196.984C99.038 176.404 101.552 130.045 134.92 132.772C138.329 133.027 143.188 133.965 145.276 136.947Z" fill="#294E76"/>
<path d="M495.574 468.152C496.255 478.634 494.039 488.69 487.604 497.127C485.516 499.897 482.619 501.686 480.36 503.987C479.635 504.712 478.527 504.669 478.954 506.331C487.562 504.712 503.074 497.255 511.384 499.215C514.58 499.982 514.708 502.624 518.373 499.641L519.907 501.26C539.425 492.27 566.187 484.941 585.194 498.448C584.427 499.641 583.617 499.598 582.338 499.726C566.4 501.473 551.187 498.15 534.396 501.601C520.844 504.371 503.415 509.867 493.443 519.625C491.653 520.392 492.42 517.196 491.44 515.833C488.116 511.06 469.621 516.344 463.996 515.492C465.658 510.634 468.172 506.757 473.968 507.183L469.834 505.521C471.411 503.604 470.857 498.789 471.709 497.425C471.922 497.042 477.292 494.144 478.57 493.079C486.326 486.389 489.948 479.316 493.741 470.027C494.253 468.792 493.23 467.769 495.616 468.195L495.574 468.152Z" fill="#294E76"/>
<path d="M68.909 199.2C70.2727 200.606 74.1507 194.002 75.1308 193.405C75.1308 198.859 70.017 205.251 66.3947 209.554C61.9201 214.838 40.1436 234.779 34.2201 235.589C31.1092 236.015 26.5493 233.288 22.8844 233.331C15.2563 233.458 10.5686 239.125 7.88383 245.687L3.324 262.263C0.298307 249.267 4.94338 235.546 14.4892 226.556C24.8874 216.755 42.7432 214.497 53.0987 203.759C54.5476 202.268 55.2721 199.797 56.8062 198.348C62.5593 193.064 73.9376 190.806 74.662 180.111C76.1962 179.941 75.4717 182.838 75.3013 183.648C73.9376 189.016 70.4857 193.959 68.8664 199.2H68.909Z" fill="#294E76"/>
<path d="M499.707 80.4897C498.685 81.6401 472.561 71.6695 470.431 70.3486C458.03 62.551 456.581 27.0997 459.052 14.1038C460.544 13.7629 460.714 14.5299 461.396 15.4673C463.356 18.0665 465.231 24.7136 467.021 28.1224C470.175 34.0877 475.289 41.8427 480.189 46.4871C482.832 49.0011 486.752 50.6203 488.798 53.6456C490.034 55.4778 498.599 74.7374 499.324 77.1661C499.665 78.274 499.878 79.3392 499.707 80.4897Z" fill="#294E76"/>
<path d="M69.7187 261.453C66.5225 251.695 63.369 241.852 62.2184 231.584C62.0479 231.37 61.153 232.01 60.9825 232.393C59.1501 236.1 64.3065 258.982 66.0111 263.924C66.3521 264.947 68.0141 269.464 69.2925 268.91C73.0853 267.333 84.0374 251.312 86.4665 247.051C90.6428 239.637 94.0094 231.669 95.4583 223.275L100.189 227.834C95.2879 240.659 91.9639 253.57 82.972 264.35C81.0117 266.737 70.017 278.326 68.0567 279.349C66.9487 279.945 66.7782 279.69 65.9259 278.965C64.6048 277.815 59.8745 265.757 59.1501 263.328C55.7835 251.823 55.5278 238.998 55.613 227.067L76.7076 204.995C79.7333 202.652 81.9067 205.933 83.7817 207.978C85.7846 210.151 92.9014 219.482 92.7736 221.826C92.6457 223.786 90.2593 230.39 89.4496 232.649C86.5517 240.659 81.1396 250.46 75.5144 256.894C74.7473 257.788 70.6988 262.348 69.7187 261.496V261.453ZM70.571 255.658C72.4034 257.362 79.3071 246.028 79.989 244.75C83.0147 239.381 90.174 223.914 88.3416 218.332C86.9353 214.028 81.5657 210.577 79.2219 206.657L65.585 220.377C64.7753 232.436 66.8634 244.281 70.571 255.615V255.658Z" fill="#294E76"/>
<path d="M61.4087 283.056C62.4741 284.036 62.5167 302.273 62.1758 305C60.3433 319.019 38.6947 343.05 27.7852 351.956C26.8477 352.723 26.4641 353.959 24.8874 353.618C23.9072 352.467 29.8307 339.684 31.1518 337.895C35.3281 332.313 44.3626 330.438 46.4507 322.896C39.0783 325.836 31.5353 332.185 23.5663 333.634C22.4157 333.847 21.0946 334.102 21.5634 332.441C29.1063 325.154 33.1547 313.181 39.8027 305.852C42.2744 303.168 45.8541 300.995 48.5389 297.969C51.8629 294.22 54.2919 289.107 57.6585 285.485C58.2552 284.846 60.5138 282.204 61.4087 283.013V283.056Z" fill="#294E76"/>
<path d="M452.276 34.173C452.873 44.6975 456.197 54.7108 459.052 64.7241C447.589 60.804 439.918 57.4804 432.631 47.5524C423.639 35.2808 417.034 18.45 415.883 3.32355L431.651 19.5152L452.276 34.173Z" fill="#294E76"/>
<path d="M401.777 43.1636C394.831 41.7149 385.797 40.8627 379.191 38.7748C371.606 36.3887 358.821 24.1171 353.665 17.8108C351.747 15.5099 341.945 1.96004 343.693 0C352.429 2.68441 360.1 7.88279 368.623 11.2063C371.819 12.442 376.592 12.4846 379.362 14.5725C381.705 16.3195 388.95 28.378 391.848 31.9573C394.746 35.5365 399.05 39.1157 401.777 43.1636Z" fill="#294E76"/>
<path d="M371.904 605.057C370.412 606.208 365.469 604.674 366.108 607.571C370.839 607.358 375.356 606.634 376.08 612.557C375.228 613.324 369.39 610.937 370.285 614.218C375.526 614.687 380.811 616.306 380.257 622.527C370.753 619.459 359.46 616.945 350.383 612.983C340.795 608.807 344.161 605.398 339.9 597.728C338.834 595.811 333.678 590.698 333.806 589.846C334.658 584.775 353.238 587.673 356.989 588.951C364.02 591.294 368.793 598.708 371.947 605.1L371.904 605.057Z" fill="#294E76"/>
<path d="M74.7047 378.502C75.6848 384.211 78.0287 389.751 78.881 395.503C80.8839 409.777 78.9662 427.034 72.8296 440.073C72.3608 441.053 66.5225 452.77 64.7753 450.682C64.5622 443.993 64.6901 436.238 63.8378 429.633C63.3264 425.5 59.7467 414.976 60.045 412.206C60.2155 410.629 64.8605 403.514 66.0111 400.872C68.9942 393.926 70.9545 386.938 73.0853 379.695C73.4262 378.459 72.6165 378.246 74.7473 378.502H74.7047Z" fill="#294E76"/>
<path d="M364.404 36.5165C357.031 35.4939 349.19 36.0904 341.945 34.5138C330.184 31.9146 313.862 19.6431 306.319 10.3541C305.552 9.37413 301.972 5.15577 302.995 4.17575C310.836 5.92274 318.464 9.03325 326.348 11.0785C330.993 12.3142 339.644 12.6977 343.607 14.5725C344.886 15.169 360.611 31.0624 362.358 33.1929C362.784 33.7469 364.659 36.346 364.404 36.5165Z" fill="#294E76"/>
<path d="M33.1973 388.43C36.6066 375.306 41.9761 362.608 42.9562 348.803L64.7327 317.059C68.8664 340.664 54.2493 371.897 36.0952 386.768C35.1576 387.535 34.7741 388.771 33.1973 388.43Z" fill="#294E76"/>
<path d="M230.762 56.4578L211.5 64.9797C194.624 69.4538 178.899 66.258 163.515 58.9292C162.748 57.9065 172.464 53.9865 173.487 53.5604C176.044 52.4951 192.706 45.9332 193.814 45.9758C194.624 45.9758 199.312 48.8307 200.889 49.3846C210.775 52.8786 220.406 54.8386 230.762 56.4578Z" fill="#294E76"/>
<path d="M121.198 234.055C106.325 231.498 102.618 248.84 103.768 260.217C104.109 263.328 107.604 273.469 111.311 268.611C112.632 266.864 111.567 263.115 113.74 262.348C114.124 267.887 116.042 273.81 118.598 278.667C119.238 279.903 123.499 284.973 122.903 285.57C118.13 283.226 113.485 280.585 110.033 276.451C107.859 275.557 109.053 279.86 109.18 280.627C110.033 285.953 113.101 290.47 115.274 295.285L125.374 309.644C107.092 301.208 94.052 277.645 95.5009 257.788C96.1402 249.224 98.5266 236.995 106.325 232.095C110.161 229.709 118.258 230.22 121.241 234.14L121.198 234.055Z" fill="#294E76"/>
<path d="M327.882 35.6643C317.356 34.599 307.214 38.5617 297.157 34.4286C285.693 29.6563 271.673 18.8335 263.107 9.97066C275.551 11.8455 288.08 13.1238 300.694 13.4647C305.893 17.3421 310.026 23.4353 315.012 27.398C319.104 30.6364 324.132 32.1277 327.882 35.7069V35.6643Z" fill="#294E76"/>
<path d="M87.1483 414.166C89.407 419.663 92.9014 424.563 94.6486 430.315C99.592 446.549 97.5891 468.621 90.4723 483.875C88.299 484.088 89.1513 483.875 88.853 482.64C85.9125 469.942 86.9353 456.903 78.0713 446.081C81.2248 436.025 83.2277 425.713 85.5716 415.402C85.8699 414.123 85.0176 413.953 87.1909 414.166H87.1483Z" fill="#294E76"/>
<path d="M115.36 513.787C113.186 514.043 114.039 513.745 113.698 512.552C110.288 501.345 110.502 485.154 98.8249 479.274C104.152 467.087 104.109 454.688 103.768 441.564C117.107 452.472 119.025 469.729 118.726 486.006C118.726 487.753 117.959 489.329 117.874 490.949C117.533 498.661 118.3 506.288 115.36 513.745V513.787Z" fill="#294E76"/>
<path d="M429.179 52.2821C416.693 50.4072 405.996 39.9679 398.027 30.7216C390.825 22.3701 383.453 10.8229 381.024 0C390.569 6.94538 399.732 14.1464 411.323 17.4274L417.119 31.5738L429.179 52.2821Z" fill="#294E76"/>
<path d="M258.973 44.0158C258.334 45.4645 255.266 46.2315 253.817 46.7428C233.063 53.9865 213.375 51.1316 195.05 39.4566C196.031 38.2209 197.394 37.8374 198.843 37.4113C208.133 34.6417 219.128 33.5764 228.631 30.7216C238.475 35.6643 247.936 42.0557 258.973 44.0158Z" fill="#294E76"/>
<path d="M68.909 350.294C68.5681 355.876 69.9744 360.861 69.7187 366.486C69.0368 381.91 59.2779 405.516 48.8372 416.978C48.1127 417.788 48.0701 418.768 46.4933 418.384C46.7916 414.762 47.9849 410.8 48.1979 407.221C48.4962 401.553 46.5785 386.214 47.6865 382.635C48.4536 380.163 55.2295 372.962 57.3176 369.852C61.1956 363.929 63.5821 356.813 67.0339 351.402C67.5453 350.592 66.9487 349.911 68.909 350.337V350.294Z" fill="#294E76"/>
<path d="M293.023 39.84L271.971 41.4166C256.587 39.2009 240.095 32.6816 229.143 21.6031L265.067 20.964C272.397 27.9946 284.159 31.6164 291.702 37.4965C292.639 38.2209 293.406 38.3061 293.066 39.84H293.023Z" fill="#294E76"/>
<path d="M485.218 575.188L471.155 578.511C462.632 574.165 453.853 569.947 444.137 569.393C447.12 566.496 452.873 562.405 456.836 560.956C466.851 557.292 483.002 560.658 493.102 563.598L492.25 566.069C497.917 564.962 503.031 569.734 505.546 574.378C504.693 574.123 503.756 575.231 503.457 575.231H485.175L485.218 575.188Z" fill="#294E76"/>
<path d="M142.761 539.524L133.13 519.668C130.829 514.725 126.141 514.299 122.945 510.72C125.076 498.831 124.394 486.773 124.479 474.757C130.616 480.424 136.71 489.372 139.821 497.17C143.102 505.436 144.466 516.855 144.466 525.761C144.466 530.022 143.401 535.22 142.719 539.481L142.761 539.524Z" fill="#294E76"/>
<path d="M175.149 561.084C173.402 561.297 172.933 561.169 171.91 559.763C169.865 556.866 167.478 549.153 165.475 545.446C162.279 539.481 157.634 529.383 149.409 532.877C150.134 521.415 148.472 510.166 147.747 498.831C167.777 513.873 173.657 537.137 175.149 561.084Z" fill="#294E76"/>
<path d="M529.623 556.099C524.254 556.525 516.199 559.976 511.043 559.422C508.316 559.124 502.733 554.82 499.494 553.457C488.414 548.94 478.698 551.241 467.405 549.026C483.641 539.012 503.457 537.393 520.546 546.512C522.336 547.449 531.626 553.798 529.666 556.056L529.623 556.099Z" fill="#294E76"/>
<path d="M454.066 581.835C457.476 581.707 460.288 582.858 462.334 585.585C462.334 586.863 453.257 589.164 451.552 588.482C454.237 591.934 460.544 589.164 464.891 590.485C466.553 590.996 470.729 595.939 469.834 596.748C459.393 597.302 449.208 596.109 438.895 594.916C434.08 590.996 430.372 585.542 424.193 583.454L424.704 581.75C429.179 580.131 434.165 574.89 438.682 574.336C444.563 573.611 449.72 575.273 454.535 578.511L454.066 581.835Z" fill="#294E76"/>
<path d="M545.902 416.339C544.837 417.447 543.388 418.086 542.067 419.577C531.285 432.232 535.76 446.933 519.651 458.565C518.586 459.332 518.628 458.778 518.799 457.713C519.694 453.196 524.637 448.083 526.725 444.035C529.41 438.837 531.157 432.957 533.927 427.971C537.891 420.813 546.797 413.527 549.695 407.221C551.954 402.278 551.911 396.27 554.127 390.901C556.173 385.916 560.093 381.74 562.054 376.414C563.758 371.684 564.142 366.486 565.591 361.671C566.912 357.367 570.619 351.146 571.088 347.269C571.727 342.198 569.724 336.616 570.406 330.821C570.96 325.964 574.327 320.467 574.497 315.738C574.796 308.451 572.153 300.356 572.835 291.706C572.92 290.598 573.219 286.678 574.497 286.294C575.222 290.129 574.881 294.305 575.563 298.097C576.244 301.889 579.611 310.923 579.568 313.266C579.568 316.718 573.347 324.728 573.176 331.631C573.091 336.276 576.926 344.755 576.713 346.459C576.671 346.843 572.75 351.7 572.026 353.064C569.852 357.069 566.358 363.46 566.4 368.02C566.4 370.747 568.488 374.326 567.764 376.968C566.656 380.803 558.048 386.384 555.874 392.52C553.871 398.145 555.661 403.514 554.425 407.689C553.957 409.223 547.692 414.464 545.988 416.254L545.902 416.339Z" fill="#294E76"/>
<path d="M265.621 566.922L257.695 567.774C225.265 569.563 210.775 542.591 188.402 525.846L172.635 519.625C177.919 520.051 184.397 520.861 189.425 522.352C203.659 526.528 218.446 546.384 234.171 553.968C237.112 555.417 244.015 557.121 245.677 558.229C247.339 559.337 247.169 561.127 248.192 562.362C251.601 566.495 260.593 566.41 265.621 566.922Z" fill="#294E76"/>
<path d="M396.791 541.185L447.418 486.432C445.799 514.341 422.105 533.942 396.791 541.185Z" fill="#294E76"/>
<path d="M185.931 118.668C188.658 115.003 193.175 112.83 195.903 109.123C197.266 107.249 199.525 101.241 200.249 100.644C201.059 99.9623 211.031 98.4283 213.503 97.704C218.574 96.2126 227.225 93.1447 230.378 88.8412C231.529 87.2646 232.126 84.2819 232.978 83.728C237.154 81.0862 250.024 81.6401 256.8 77.8479C258.718 76.7826 262.383 72.7347 263.746 72.3512C268.306 70.9877 278.278 72.5217 284.798 70.9877C290.466 69.6668 295.282 64.511 298.478 63.9145C304.401 62.8493 317.101 67.1528 325.837 66.3859C331.078 65.9172 337.769 62.5084 341.604 62.2527C343.863 62.0823 355.54 64.3406 358.778 64.9371C363.168 65.7467 368.623 66.6415 372.671 68.4311C372.458 74.4391 345.695 64.8519 342.372 64.8519C339.048 64.8519 333.294 67.6215 329.076 68.005C320.212 68.8146 308.705 66.4285 300.949 67.2381C296.432 67.7068 291.233 72.266 286.673 72.9478C282.881 73.5443 278.235 72.6921 274.272 73.033C264.854 73.8426 262.042 78.274 254.158 81.1288C249.428 82.8332 243.76 83.2167 239.242 85.3046C233.106 88.202 229.654 94.3378 221.514 97.4909C216.528 99.4084 209.54 99.9623 205.15 101.88C200.761 103.797 193.9 119.094 185.845 118.668H185.931Z" fill="#294E76"/>
<path d="M631.73 395.929C607.354 404.11 585.321 418.342 569.895 439.093L563.673 444.888C570.491 428.824 582.594 415.316 596.615 405.218C601.345 401.809 614.769 392.904 619.925 391.966C621.715 391.625 633.903 393.159 631.73 395.929Z" fill="#294E76"/>
<path d="M429.989 595.129C428.241 595.555 424.363 593.808 425.003 596.791C428.838 597.047 436.04 598.666 435.784 603.438C435.486 603.736 425.045 602.671 428.327 605.1C435.017 605.185 440.429 607.529 443.285 613.835C443.881 615.667 431.182 611.491 430.202 611.15C419.974 607.955 408.979 604.972 405.059 593.979L418.823 586.309C422.872 588.823 427.389 590.953 430.031 595.129H429.989Z" fill="#294E76"/>
<path d="M205.875 568.583C202.124 563.896 195.178 549.026 188.104 549.494C185.505 549.665 183.715 552.86 180.987 552.818C180.689 545.915 179.538 538.927 176.726 532.621C175.533 529.894 173.572 528.104 172.72 525.462C193.303 528.956 205.747 548.685 205.917 568.626L205.875 568.583Z" fill="#294E76"/>
<path d="M464.038 103.755C454.152 101.709 447.717 97.8744 437.063 98.8118C436.083 98.897 427.9 100.005 430.798 101.709C432.588 102.775 437.105 102.86 439.577 103.712C441.878 104.522 449.336 107.249 448.654 110.402L413.369 103.328C419.25 99.0675 425.429 94.7213 432.503 92.5482C436.637 91.2699 449.421 88.4577 452.873 90.4177C453.64 90.8438 464.72 103.201 464.038 103.712V103.755Z" fill="#294E76"/>
<path d="M467.362 536.2L468.087 530.959C466.723 526.783 447.887 529.553 443.711 528.743L437.489 527.082C447.844 522.991 458.115 518.517 469.408 517.921C472.434 517.75 485.389 517.154 485.687 520.861C486.028 525.036 471.581 534.837 467.362 536.2Z" fill="#294E76"/>
<path d="M201.656 504.584C200.207 504.584 198.545 505.606 197.138 505.478C194.88 505.265 185.462 493.122 182.181 490.565C178.132 487.412 171.612 486.048 168.885 483.108C164.793 478.762 163.558 471.135 157.719 466.065C154.992 463.678 145.617 459.886 145.19 459.29C143.869 457.585 141.952 448.722 140.673 445.74C135.389 433.212 126.056 427.503 120.601 415.998C117.15 408.797 114.593 400.19 112.078 392.605C113.229 392.392 113.953 392.989 114.848 393.585C119.493 396.611 122.306 415.018 126.014 421.41C129.252 426.991 135.346 431.551 138.969 437.516C142.122 442.629 144.381 451.279 147.747 455.327C150.73 458.906 156.782 461.122 160.617 465.681C164.154 469.857 165.859 475.993 169.311 479.401C171.995 482.128 177.919 484.642 181.371 487.284C186.272 491.034 191.471 497.894 196.755 500.152C199.397 501.303 202.593 499.471 201.698 504.669L201.656 504.584Z" fill="#294E76"/>
<path d="M582.722 410.033C581.188 410.246 582.04 408.328 582.253 407.476C586.898 390.006 598.745 376.584 612.212 365.207C619.073 359.413 629.812 349.612 638.761 356.046C639.486 356.771 637.951 357.751 637.44 358.049C634.414 359.881 630.153 361.16 626.786 363.162C608.291 374.155 590.563 389.452 582.722 409.99V410.033Z" fill="#294E76"/>
<path d="M113.74 361.884C104.748 360.052 96.7368 355.62 92.0065 347.524C86.6796 338.449 89.7905 333.208 92.1769 323.706L100.615 334.784C104.834 344.158 107.092 353.745 113.74 361.884Z" fill="#294E76"/>
<path d="M49.8173 200.052C38.3112 213.773 12.6568 218.502 0 203.759C2.68477 203.632 5.07122 205.464 7.96907 205.762C16.6626 206.657 20.2423 202.098 27.0181 198.433L49.8173 200.052Z" fill="#294E76"/>
<path d="M474.01 476.419C473.669 489.969 460.885 512.04 448.271 517.494C446.95 518.091 444.648 519.241 443.285 518.389C442.432 517.494 441.75 516.301 441.708 515.023C441.58 508.206 458.711 497.34 463.612 491.375C467.575 486.56 469.408 480.424 473.968 476.419H474.01Z" fill="#294E76"/>
<path d="M373.395 44.1436C374.205 51.7707 381.961 55.7761 386.01 61.8266C384.348 62.6788 381.705 63.9997 379.83 63.8719C377.231 63.7015 351.363 46.2315 348.039 43.3766C347.443 42.8653 346.463 43.3766 346.974 41.4592C350.596 41.1609 372.032 42.1836 373.395 44.101V44.1436Z" fill="#294E76"/>
<path d="M97.93 423.327C94.8617 420.685 85.1028 400.914 86.4665 398.613C86.6796 398.273 88.0859 398.059 88.6825 397.122C91.836 392.137 93.498 385.916 94.606 380.206C98.1431 380.632 100.018 382.976 100.444 386.427C101.765 397.761 98.6971 411.908 97.93 423.37V423.327Z" fill="#294E76"/>
<path d="M72.3608 336.275C72.5739 335.935 74.6194 335.722 75.5144 334.869C80.2447 330.438 83.6539 317.996 86.7648 312.073C88.5547 314.204 90.4297 316.632 90.1314 319.573C89.7479 323.748 85.4863 335.295 83.867 339.897C82.9294 342.539 77.9008 357.666 75.9405 357.708C73.0853 354.939 70.9119 338.449 72.3182 336.275H72.3608Z" fill="#294E76"/>
<path d="M556.173 527.082C547.65 524.994 539.68 523.588 530.817 523.715C524.424 523.843 514.836 524.568 508.529 525.505C502.222 526.442 496.596 528.871 490.588 530.362C499.75 522.309 512.108 518.645 524.169 517.878C528.643 517.58 542.749 517.196 546.414 518.134C547.777 518.474 557.238 526.016 556.173 527.039V527.082Z" fill="#294E76"/>
<path d="M68.0567 306.278C72.0199 308.196 74.4916 305.213 77.1764 302.529L90.4297 278.028C90.1314 290.385 84.2079 303.764 78.5827 314.715C77.4321 316.931 72.6591 326.603 70.9119 326.987L68.9942 325.623L68.0567 306.236V306.278Z" fill="#294E76"/>
<path d="M85.4863 391.753C83.9948 392.094 83.867 391.327 83.1425 390.39C81.6936 388.472 76.3241 368.531 77.1764 367.679C85.2307 371.173 85.3159 349.314 87.5745 349.442C88.5546 351.018 91.1542 353.745 91.7082 355.279C92.6031 357.921 90.174 371.599 89.4496 375.349C88.3842 380.845 86.9779 386.384 85.529 391.753H85.4863Z" fill="#294E76"/>
<path d="M478.144 106.226C470.431 103.414 464.124 96.2978 459.095 90.0342C456.836 87.222 443.455 68.8146 445.799 66.3859C448.484 66.3006 464.848 74.0556 464.891 75.0782C464.081 76.1861 462.078 77.2513 461.694 78.5722C460.373 83.3871 474.82 101.624 478.187 106.183L478.144 106.226Z" fill="#294E76"/>
<path d="M640.04 318.72C635.906 322.129 630.962 324.004 626.488 327.157C618.093 333.037 608.845 342.582 603.177 351.146C599.598 356.515 597.595 362.864 593.546 367.679C597.126 351.956 606.586 335.892 618.86 325.367C624.528 320.553 633.008 313.011 639.997 318.72H640.04Z" fill="#294E76"/>
<path d="M415.883 68.8998C412.687 69.8372 410.258 70.3486 407.104 68.9851C403.141 67.2381 386.01 51.9838 383.112 48.1915C382.473 47.3393 381.492 47.1263 381.876 45.7202L405.954 51.089L406.763 51.9412C399.433 56.4578 416.82 67.7068 415.926 68.9424L415.883 68.8998Z" fill="#294E76"/>
<path d="M96.268 291.322C100.103 302.742 104.322 314.118 111.354 323.961L120.346 335.295C110.885 331.844 103.044 325.197 98.3136 316.249C96.4811 312.798 92.2196 301.847 92.2622 298.353C92.2622 297.245 94.606 289.788 96.268 291.322Z" fill="#294E76"/>
<path d="M447.418 84.6654C442.262 85.6454 438.597 81.5975 434.975 78.4444C430.33 74.3965 418.823 63.2754 416.053 58.3326C415.542 57.3952 414.775 56.8413 415.073 55.6056C416.991 53.8586 432.801 60.2927 435.443 62.2527C436.04 63.0623 434.25 63.8293 434.122 65.2354C433.739 69.1129 448.441 83.9411 447.461 84.6654H447.418Z" fill="#294E76"/>
<path d="M417.545 537.01C417.119 534.666 418.099 535.646 419.377 535.135C428.71 531.385 446.864 530.916 456.879 532.11C468.513 533.516 461.78 540.589 455.174 543.529C445.074 536.115 429.69 537.606 417.545 537.01Z" fill="#294E76"/>
<path d="M119.536 388.472C119.706 390.006 117.789 389.197 117.022 388.898C112.803 387.364 100.274 379.95 97.9726 376.414C94.4356 370.96 97.4186 364.44 97.1629 358.56C109.053 365.122 107.476 382.635 119.579 388.472H119.536Z" fill="#294E76"/>
<path d="M605.138 330.353C603.646 330.523 604.285 327.583 604.413 326.731C605.862 315.865 609.357 303.21 616.09 294.39C619.329 290.172 632.028 276.92 637.525 281.82C638.761 282.928 638.165 283.099 636.929 283.738C616.431 293.964 610.848 309.218 605.138 330.395V330.353Z" fill="#294E76"/>
<path d="M436.637 87.1368C429.435 89.736 427.73 81.9384 423 81.2992C419.548 80.8305 415.031 81.5975 411.451 81.4271L395.982 85.0489C403.184 79.1688 413.326 73.2886 423 74.6095C425.045 74.9078 431.395 80.6601 433.355 82.5349C434.037 83.1741 437.574 86.3272 436.679 87.0942L436.637 87.1368Z" fill="#294E76"/>
<path d="M488.116 110.402C485.772 113.171 467.021 83.4297 469.877 78.8705C483.087 78.5296 480.786 91.3125 483.769 100.261C484.92 103.797 487.264 106.78 488.159 110.402H488.116Z" fill="#294E76"/>
<path d="M68.0567 300.483C67.9288 296.989 66.139 292.217 67.6305 288.894C68.3124 287.36 75.3013 282.928 77.219 281.053C80.7134 277.602 83.4834 272.361 87.1483 268.995C87.0631 275.77 82.1197 283.951 78.3696 289.661C77.5599 290.896 69.7187 302.23 68.0567 300.526V300.483Z" fill="#294E76"/>
<path d="M405.911 73.8426L395.129 75.5043C396.365 63.6588 378.637 74.1408 372.714 75.5043C377.572 69.6668 385.115 66.0876 392.402 64.1275L405.954 73.8426H405.911Z" fill="#294E76"/>
<path d="M498.898 483.918C498.599 476.547 507.122 472.925 510.361 466.746C512.535 462.571 512.364 457.244 515.475 454.049C516.711 466.491 512.194 480.85 498.898 483.918Z" fill="#294E76"/>
<path d="M172.635 117.049L170.163 115.387L165.987 128.681L168.458 129.491C165.007 132.644 155.205 127.531 157.591 124.079C159.978 120.628 168.501 117.603 167.649 111.254C168.671 110.189 173.231 116.41 172.635 117.049Z" fill="#294E76"/>
<path d="M299.671 537.862C293.492 543.785 285.139 544.594 278.917 538.288C284.457 531.726 293.023 534.666 299.671 537.862Z" fill="#294E76"/>
<path d="M607.354 157.741C612.595 156.164 614.854 172.441 610.592 175.083C604.456 173.933 602.155 159.318 607.354 157.741Z" fill="#294E76"/>
<path d="M582.722 172.654C581.23 171.845 581.955 169.587 580.634 167.712C575.648 160.681 569.085 169.885 568.616 169.373C568.488 165.837 573.858 162.471 574.412 159.829C575.051 157.059 570.321 161.15 570.236 158.593C580.08 155.483 588.773 162.982 582.679 172.697L582.722 172.654Z" fill="#294E76"/>
<path d="M146.938 107.888C152.861 108.74 157.421 105.842 160.234 100.814L161.896 101.667C161.043 107.675 157.208 112.276 151.114 113.342C147.151 114.066 146.682 111.296 146.938 107.845V107.888Z" fill="#294E76"/>
<path d="M167.691 86.3272C165.561 85.262 166.157 80.6601 163.941 79.6801C161.725 78.7001 163.685 83.0036 161.469 82.1514L156.1 76.6974C164.708 65.0224 167.223 78.0609 167.691 86.2846V86.3272Z" fill="#294E76"/>
<path d="M117.022 78.0183C117.661 78.6574 113.612 94.7213 108.712 92.1221C107.774 85.2619 109.479 79.1688 117.022 78.0183Z" fill="#294E76"/>
<path d="M131.127 250.673L124.565 244.409L115.402 244.878C116.936 242.023 122.178 242.023 121.241 237.89C121.028 236.995 119.152 237.975 119.536 236.569C126.184 236.569 131.468 244.409 131.127 250.673Z" fill="#294E76"/>
<path d="M337.002 50.6203C337.215 52.0264 335.042 51.5151 334.104 51.4299C332.101 51.2594 313.18 46.5298 313.734 45.2089C321.66 40.5218 329.076 50.1516 336.959 50.6203H337.002Z" fill="#294E76"/>
<path d="M116.212 432.445L120.942 447.188L120.772 454.816C115.402 449.404 116.596 439.604 116.212 432.445Z" fill="#294E76"/>
<path d="M287.227 54.796C287.398 56.2022 284.372 55.6908 283.477 55.6482C277.468 55.2647 270.948 53.9438 265.664 51.0464C266.644 49.6403 267.752 49.7681 269.244 49.8533C274.741 50.109 281.73 53.6882 287.227 54.796Z" fill="#294E76"/>
<path d="M254.84 66.4285C255.01 67.9198 252.965 67.2381 252.07 67.1528C249.428 66.8972 232.552 64.0423 232.467 61.8692C233.617 60.0796 234.299 60.8466 235.791 60.9744C241.97 61.5284 248.831 64.8519 254.84 66.4285Z" fill="#294E76"/>
<path d="M151.071 493.846C149.281 494.144 148.727 492.696 148.173 491.375C145.744 485.75 145.148 477.441 143.614 471.476C145.063 471.689 145.063 473.138 145.489 474.16C148.088 479.998 150.816 487.54 151.071 493.889V493.846Z" fill="#294E76"/>
<path d="M564.483 426.651C564.653 428.525 562.735 429.761 561.457 430.656C557.025 433.766 549.695 436.238 544.581 438.24C546.328 435.641 562.991 425.287 564.483 426.651Z" fill="#294E76"/>
<path d="M582.722 392.605C583.148 394.395 581.699 394.438 580.804 395.247C576.244 399.508 568.446 401.596 562.778 404.195C564.525 401.426 581.017 391.072 582.679 392.605H582.722Z" fill="#294E76"/>
<path d="M176.811 515.449C170.674 510.251 172.081 500.919 169.353 493.889C173.913 499.428 176.3 508.291 176.811 515.449Z" fill="#294E76"/>
<path d="M577.779 373.516C578.375 371.599 591.33 361.202 591.884 361.884C592.012 363.588 591.458 365.207 590.18 366.401C587.793 368.574 580.975 371.982 577.779 373.474V373.516Z" fill="#294E76"/>
<path d="M197.138 82.1514C196.798 82.1088 194.752 81.3419 195.05 80.4897L199.653 79.6375L216.614 82.1514C210.52 81.5549 203.019 82.961 197.096 82.1514H197.138Z" fill="#294E76"/>
<path d="M593.546 334.529C594.058 334.955 586.089 343.647 583.574 342.795C584.768 341.218 591.629 333.037 593.546 334.529Z" fill="#294E76"/>
<path d="M72.1904 251.482C70.9971 251.482 70.571 248.926 70.3153 247.988C68.4402 241.512 65.9259 224.809 69.3351 219.142C70.1448 217.821 77.2616 210.918 78.4548 211.003C81.4379 213.56 90.3445 221.826 83.4408 224.042C81.3527 224.042 78.2843 220.207 76.7928 222.422L72.1904 251.44V251.482Z" fill="#294E76"/>
</svg>
