<svg width="42" height="43" viewBox="0 0 42 43" fill="none" xmlns="http://www.w3.org/2000/svg">
<circle cx="21" cy="21.5" r="20.5" stroke="white"/>
<path fill-rule="evenodd" clip-rule="evenodd" d="M12.0323 10.8936V10.8943C12.0323 10.8936 12.0323 10.8925 12.0323 10.8936ZM31.9884 11.3779V11.3776L31.9871 11.3845L31.9884 11.3779ZM31.9997 11.3155L32.0511 11.6985C31.9956 11.614 31.9692 11.4925 31.9871 11.3845C31.8482 12.1988 31.6697 13.0186 31.5098 13.8306C31.494 13.9117 31.483 13.9943 31.4641 14.0745C31.4268 14.2317 31.3915 14.3895 31.3625 14.5488C31.306 14.8559 31.2294 15.1574 31.1836 15.4662C31.1647 15.5946 31.1404 15.723 31.1237 15.8517C31.1138 15.9301 31.0726 16.0651 31.0641 16.1584C31.053 16.2799 31.053 16.4027 31.0193 16.5237C31.0177 16.53 31.0167 16.5366 31.0171 16.5425C31.0215 16.6401 30.9696 16.7527 30.9739 16.8777C30.9768 16.9663 30.8568 17.4856 30.8344 17.6091C30.8203 17.6868 30.8256 17.6365 30.8489 17.6139C30.7538 17.8232 30.649 17.9677 30.5095 18.1447C30.4598 18.2078 30.4637 18.295 30.3202 18.4768C30.1713 18.4126 29.9953 18.4487 29.878 18.5837L29.1754 19.3053C29.1367 19.3321 29.0997 19.3581 29.0654 19.3851C28.9975 19.4396 28.9218 19.4625 28.8451 19.509C28.7116 19.5909 28.6733 19.5703 28.6379 19.5923C28.5981 19.6176 28.5578 19.6544 28.5019 19.6592C28.4994 19.6592 28.4962 19.6613 28.4944 19.6638C28.4641 19.6981 28.3951 19.687 28.3448 19.7421C28.3176 19.7721 28.0988 19.8618 27.9931 20.0461C27.9502 20.121 27.8716 20.3634 27.8502 20.4489C27.8385 20.4957 27.8854 20.522 27.8761 20.6574C27.8713 20.7272 27.9146 20.7098 27.9098 20.7657C27.9063 20.8074 27.9156 20.7586 27.9518 20.8538L28.1124 20.7671C28.1633 20.7623 28.3841 20.4132 28.4824 20.4472C28.5622 20.4747 28.8481 20.4279 28.9303 20.4104C29.2898 20.3337 29.6009 20.1455 29.8707 19.8816C29.7973 20.4516 29.8093 20.5341 29.6152 21.141C29.5813 21.2471 29.564 21.327 29.478 21.3912C29.3687 21.4728 29.1564 21.4347 29.0733 21.4627C29.0507 21.4703 29.0625 21.4436 28.9938 21.4582L28.4669 21.429C28.406 21.4277 28.2611 21.4367 28.2133 21.3922C28.1196 21.3049 28.0816 21.2074 28.0496 21.0692C27.9889 20.8074 27.9885 20.9489 27.9612 20.9467C27.9328 20.9444 27.931 20.9027 27.9045 20.937C27.8963 20.901 27.8949 20.8612 27.8755 20.8426C27.841 20.8661 27.788 20.942 27.7808 20.9842L27.7701 21.2284C27.7656 21.311 27.7013 21.2015 27.7859 21.4609C27.8539 21.6695 27.9006 21.8007 28.0824 21.9296C28.1841 22.0017 28.2184 21.9931 28.2777 22.0257L28.2686 22.0608C28.2745 22.1066 28.2238 22.2669 28.2083 22.3162C28.179 22.4096 28.2357 22.4851 28.2203 22.5008C28.2078 22.5133 28.241 22.6741 28.2468 22.7277C27.1743 22.8952 26.7424 22.9266 25.6423 22.9113C25.1706 22.9047 24.2675 22.8154 23.8306 22.7381C23.8366 22.6937 23.8401 22.6493 23.8442 22.6049C23.8458 22.5837 23.8401 22.5619 23.8452 22.5407C23.8537 22.5071 23.8537 22.4731 23.8563 22.4391C23.8595 22.4064 23.8997 22.4073 23.8866 22.3333L23.9159 21.4309C23.9188 21.0638 23.9456 20.6979 23.9645 20.3317C23.983 19.9718 23.999 19.8725 23.9941 19.5091L23.9878 18.897C23.9959 18.751 24.0388 18.4877 24.0814 18.3557C24.1409 18.1722 24.2772 17.9675 24.4058 17.8394C24.4231 17.8224 24.4367 17.7998 24.4559 17.7853C24.496 17.7572 24.5342 17.7284 24.5717 17.6954C24.6829 17.597 24.8778 17.4995 24.9477 17.4436C24.9809 17.4169 25.1332 17.3956 25.1638 17.3807C25.2184 17.3547 25.2701 17.3152 25.3304 17.3134C25.3332 17.3134 25.3363 17.3117 25.3389 17.3096C25.3825 17.2733 25.4394 17.295 25.4928 17.2513C25.53 17.2208 25.7789 17.1895 25.8489 17.1708C25.8968 17.2061 26.1095 17.2677 26.1647 17.2832C26.4458 17.3623 26.8927 17.3065 27.1657 17.1972C27.6752 16.993 27.8787 16.6497 27.8912 16.6424C27.9562 16.6354 28.0221 16.6282 28.0868 16.6084C28.1074 16.6019 28.3367 16.5668 28.3672 16.5834C28.4355 16.6204 28.7675 16.4701 28.8978 16.4443C29.1441 16.3955 29.445 16.2488 29.6581 16.115C29.7051 16.0849 29.7473 16.0456 29.7941 16.0182C29.881 15.9672 29.9793 15.8886 30.0474 15.8048C30.1455 15.6841 30.1857 15.6695 30.2421 15.5012L30.3398 15.2326C30.5509 14.5696 30.8329 13.1283 30.9389 12.4014L31.1856 10.9161C31.1727 10.9826 31.1415 11.0469 31.1027 11.0986C31.2213 10.4858 31.1853 10.8454 31.1118 10.3259C31.0835 10.1255 31.0461 9.56675 31.214 9.44115C31.2899 9.38436 31.4648 9.45461 31.5449 9.506C31.6854 9.59623 31.8779 9.82559 31.9329 9.9942C31.9594 10.0744 31.9948 10.1538 32.0172 10.2388C32.1153 10.609 32.0811 10.9428 31.9997 11.3155ZM23.8366 27.5332L23.3451 24.1979L23.1811 23.1448C23.1577 22.9887 23.2217 22.8395 23.3341 22.7569C23.2521 22.4343 23.2527 22.2439 23.2457 21.9114C23.2445 21.8547 23.2283 21.8252 23.2432 21.7907L23.2138 21.0856L23.2025 20.0458C23.1722 19.7377 23.1637 19.1387 23.1646 18.8325C23.1697 18.5556 23.1833 18.3884 23.2558 18.1233C22.5841 18.2857 22.0265 18.2921 21.3552 18.3086C20.9091 18.3156 20.3236 18.2243 19.8854 18.1053C19.9735 18.3361 20.0106 18.5974 20.023 18.8464C20.0245 18.8987 20.0328 18.9529 20.0255 19.0049C20.0113 19.0812 20.0343 19.1562 20.0293 19.2318C20.0236 19.319 20.0403 19.4234 20.0425 19.5048C20.053 19.8799 20.0292 20.1477 20.0154 20.5211L19.9895 21.1019C19.9969 21.2977 19.9735 21.7792 19.9696 22.0012L19.9655 22.3312C19.9791 22.4049 19.9389 22.4058 19.9365 22.4367L19.9163 22.7219C20.0274 22.8322 20.0796 22.9939 20.0548 23.1598L18.9377 30.3926C18.9239 30.4887 18.91 30.5845 18.8961 30.6799C18.7986 31.3686 18.6889 32.0538 18.5885 32.7415C18.55 33.0058 18.6273 33.1842 18.6529 33.4882C18.672 33.7148 18.7398 34.4079 18.7381 34.5728C18.7372 34.6659 18.7261 34.7998 18.6987 34.8989C18.9358 34.937 18.9168 34.8821 19.1164 34.8885L19.1646 34.8857C19.1769 34.7408 19.17 34.6064 19.1898 34.426C19.1956 34.374 19.24 33.9079 19.2309 33.8438C19.2127 33.7164 19.254 33.5928 19.2397 33.4902C19.2388 33.484 19.2388 33.477 19.2397 33.4704C19.2552 33.3799 19.2539 33.2907 19.251 33.2019C19.2588 33.0607 19.3267 32.8389 19.3539 32.7089C19.4329 32.2534 19.5658 31.8072 19.6687 31.3714C19.7076 31.2072 19.753 31.0456 19.7996 30.8846C19.8236 30.803 19.8397 30.718 19.8605 30.6347L20.4066 28.5169L20.8593 26.7345C20.8892 26.62 20.9132 26.502 20.9504 26.392C21.0142 26.2047 21.0422 26.0083 21.0971 25.8192C21.1211 25.7366 21.1413 25.6526 21.1612 25.5683C21.265 25.1313 21.8471 25.0714 21.9899 25.5683C22.3701 26.8913 22.6558 28.2153 22.9823 29.5562L23.8485 33.0498C23.8769 33.1688 23.9242 33.2999 23.8905 33.4374C23.877 33.4924 23.9154 33.8389 23.9224 33.9297C23.9346 34.0907 23.9733 34.613 23.97 34.7746C23.969 34.8062 23.9741 34.8381 23.9801 34.862C24.0743 34.862 23.9607 34.9207 24.2382 34.8836C24.2521 34.8818 24.2666 34.8808 24.2795 34.8763C24.3517 34.8523 24.4271 34.8409 24.5038 34.8277C24.4693 34.6749 24.4703 34.5215 24.4855 34.368L24.5637 33.4724C24.5887 33.1873 24.6634 32.988 24.6252 32.7456L23.8366 27.5332ZM23.9902 34.8896C23.9946 34.9014 23.9956 34.8979 23.9946 34.9024C23.993 34.9017 23.9902 34.8952 23.9867 34.8858C23.988 34.8871 23.9896 34.8882 23.9902 34.8896ZM19.2491 22.6577L19.3867 22.6335C19.3259 22.3605 19.3344 22.2028 19.3205 21.918C19.3177 21.8625 19.3026 21.8306 19.3163 21.7969L19.2797 21.0915C19.2614 20.652 19.273 20.1258 19.2299 19.7235C19.2222 19.6517 19.2373 19.6635 19.2242 19.5531L19.2046 18.9942C19.1884 18.6509 19.0553 18.2457 18.8406 17.9908C18.7034 17.8279 18.6617 17.7781 18.5015 17.6501C18.3652 17.5412 18.396 17.5691 18.2396 17.4773C18.1407 17.4192 18.0472 17.3432 17.9368 17.3392C17.8469 17.336 17.8522 17.2921 17.8169 17.2834C17.7768 17.2737 17.7368 17.2664 17.6976 17.2511C17.6975 17.251 17.3348 17.1767 17.2437 17.1411C17.1574 17.1074 17.1308 17.1769 17.0396 17.1915L16.7784 17.2529C16.5714 17.2826 16.2713 17.2607 16.0649 17.187C15.6422 17.036 15.3261 16.8248 15.0791 16.4015C14.47 16.3779 14.0389 16.3381 13.48 16.0188C13.1962 15.8566 13.0938 15.7589 12.9589 15.4178C12.8444 15.1286 12.7355 14.7225 12.6658 14.4162C12.6433 14.3172 12.6025 14.1971 12.5992 14.1139C12.5986 14.0987 12.5948 14.0813 12.5897 14.0671C12.5217 13.8704 12.2185 12.1482 12.1683 11.8246L12.0326 10.8948C12.0923 10.8948 12.2237 10.8379 12.3001 10.8379L12.3654 10.8104L12.0361 10.7084C12.114 10.3909 12.1611 10.1092 12.1477 9.80114C12.1423 9.67647 12.0911 9.46007 12.0099 9.39417C11.818 9.23841 11.5071 9.49054 11.3774 9.65332C11.2608 9.79971 11.1424 10.0561 11.0979 10.2522C11.0209 10.5915 11.059 10.9796 11.1524 11.3163L10.7424 11.445C10.8575 11.5291 11.0107 11.5809 11.1547 11.5668C11.1648 11.5658 11.1774 11.4309 11.1645 11.3788L11.6427 13.6937L11.8629 14.8453C11.8872 14.9726 11.9162 15.1 11.9304 15.2297L12.0506 15.8178C12.1115 16.1358 12.3126 17.2441 12.3156 17.4617L12.3291 17.6484L12.3203 17.6303L12.3153 17.6314C12.4634 17.9426 12.6026 18.1969 12.7705 18.4939C12.772 18.4967 12.773 18.4995 12.7746 18.5026C12.9216 18.4085 13.1098 18.4246 13.2402 18.5464C13.4416 18.7384 13.9667 19.2742 14.162 19.419C14.3941 19.591 14.8166 19.5632 15.0762 19.8749C15.1264 19.9352 15.201 20.1246 15.2197 20.1844C15.269 20.3425 15.2586 20.5856 15.1819 20.7312L15.0427 20.8776C14.9838 20.8016 14.9881 20.8517 14.9799 20.8117C14.9699 20.7627 14.9326 20.792 14.9162 20.7361C14.8772 20.6027 14.8325 20.7026 14.7856 20.5241C14.7709 20.4683 14.6304 20.3765 14.5995 20.3964C14.5619 20.4205 14.5449 20.3816 14.5061 20.4016C14.5039 20.4027 14.5017 20.403 14.5001 20.4019C14.4632 20.3839 14.4165 20.403 14.3676 20.4085L14.0664 20.3554C13.8029 20.303 13.529 20.0844 13.3292 19.8867L13.5263 20.8551L13.6263 21.2361C13.6283 21.2855 13.6742 21.3322 13.7241 21.3547C13.8044 21.3911 14.1739 21.3915 14.2705 21.3849L14.5575 21.3582C14.6131 21.3334 14.6195 21.3786 14.6424 21.3745C14.6881 21.3662 14.7274 21.3697 14.7818 21.3471C14.8508 21.3185 14.8632 21.3725 14.856 21.2351C14.8545 21.2074 14.886 21.2259 14.8922 21.1938C14.918 21.0599 14.8914 21.1887 14.8988 21.0248C14.9005 20.9885 14.9393 20.9127 14.967 20.8885C14.9886 20.8991 14.9973 20.9329 15.0118 20.9631C15.0397 20.926 15.0353 20.9647 15.0692 20.9603C15.0855 20.9582 15.085 20.8931 15.1112 20.9297C15.1835 21.0309 15.2558 21.3429 15.2301 21.4852C15.1909 21.7026 15.0872 21.8274 14.9156 21.9342L14.8024 21.9911C14.8065 22.0136 14.8235 22.0105 14.8071 22.0175L14.8434 22.1379C14.8694 22.2295 14.8351 22.2815 14.885 22.3825C14.8747 22.3947 14.9301 22.6142 14.9301 22.6975C16.4685 22.9338 17.7091 22.8911 19.2491 22.6577ZM12.1642 17.7152C12.067 17.7853 11.9759 17.8509 12.085 17.7721L12.1642 17.7152ZM29.6278 15.4318L29.6496 15.4624C29.647 15.4586 29.6382 15.4461 29.6278 15.4318ZM32.913 10.9852C32.8832 11.4646 32.3445 14.0422 32.2344 14.5409C32.2199 14.6061 32.2017 14.6703 32.1871 14.7352C32.1435 14.9345 32.0828 15.2527 32.0281 15.4322L31.9026 16.021C31.8213 16.3757 31.5737 17.3938 31.4571 17.6406C31.3237 17.9233 31.4062 17.8523 31.2205 18.0872C31.074 18.2726 30.7394 18.5917 30.5423 18.7114C30.6312 18.8962 30.6917 19.2912 30.6943 19.507C30.695 19.5628 30.7048 19.6204 30.6937 19.6738C30.679 19.7478 30.6943 19.8506 30.6817 19.9458L30.653 20.2633C30.6032 20.6398 30.4766 20.9875 30.3486 21.3375C30.235 21.6479 30.157 21.8292 29.8833 22.0342C29.6315 22.2228 29.2711 22.2076 28.9795 22.1814C28.989 22.2551 28.9708 22.2867 29.0145 22.3469L29.0432 22.4725C29.059 22.5161 29.0833 22.5272 29.1056 22.6585L29.0858 22.7799L29.0871 22.8157L29.0562 22.8875L29.094 23.0162C29.1367 23.3295 29.2105 23.6698 29.2795 23.9838L29.7474 26.083L31.1733 32.6902C31.2268 32.9397 31.3267 33.0735 31.4906 33.2699L32.0032 33.8903C32.3431 34.3072 32.3141 34.9468 31.9335 35.35C31.5825 35.7218 31.1314 35.8035 30.713 35.5175C30.4562 35.3433 30.1962 35.173 29.9461 34.9898C29.5666 34.7124 29.2655 34.607 28.9741 34.1827C28.7451 33.8494 28.6433 33.4559 28.5208 33.0617C28.2164 32.0822 27.9631 31.2358 27.7025 30.2069C27.6782 30.1104 27.6552 30.0112 27.6338 29.9144C27.3607 28.6683 26.9848 27.4074 26.6429 26.1793L26.3848 25.3026L26.8487 25.837C27.0822 26.398 27.6692 28.5602 28.0035 29.4589L28.4335 30.6149C28.5205 30.8473 28.5871 30.9731 28.677 31.2284C28.7306 31.3789 28.7808 31.5334 28.8433 31.6697C28.849 31.6839 28.8562 31.7006 28.8609 31.7159C28.9638 32.0386 29.0871 32.3241 29.2032 32.6232C29.341 32.9783 29.4228 33.4127 29.6461 33.6888C29.7285 33.7906 29.7947 33.8412 29.8963 33.9056L31.1708 34.7456C31.2436 34.7944 31.3135 34.7338 31.3591 34.6706C31.4356 34.5647 31.3523 34.4904 31.3017 34.4284L30.7452 33.7643C30.558 33.5341 30.4104 33.2292 30.3436 32.9333C30.0212 31.4674 29.7196 29.9802 29.402 28.511C29.319 28.1335 29.2358 27.7556 29.1525 27.3785L28.4597 24.1143C28.4254 23.9529 28.3885 23.786 28.3566 23.6167C27.088 23.8371 25.7135 23.8842 24.4414 23.719L24.0591 23.6677L24.837 29.3235L25.008 30.5469C25.1117 31.2346 25.2023 31.9237 25.3029 32.6114C25.3622 33.0134 25.2734 33.2599 25.2316 33.6557L25.1455 34.5662C25.1455 34.7281 25.1689 34.7966 25.3039 34.8316C25.3767 34.8505 25.4906 34.8282 25.5263 34.7889C25.5254 34.7889 25.5257 34.7889 25.5257 34.79C25.5247 34.79 25.5232 34.7931 25.5241 34.7931L26.1563 33.4052C26.3881 32.8906 26.3218 32.8807 26.3642 32.4341C26.3793 32.2749 26.344 31.4334 26.3392 31.166C26.3022 29.1277 25.4677 26.8164 26.3702 25.2197C26.4501 27.4356 26.8038 29.9353 26.956 32.3144C26.9763 32.6319 26.9954 32.8219 26.914 33.1638C26.8397 33.4761 26.7182 33.7257 26.5964 34.0023L26.1036 35.1115C25.8511 35.6681 24.9108 35.7515 24.5954 35.0908C24.4013 35.1672 24.001 35.3219 23.8058 35.2486C23.6365 35.1851 23.5833 34.9612 23.5465 34.7965C23.4483 34.3569 23.3473 33.8757 23.2837 33.4305L23.2645 33.2942L22.9866 32.2956C22.9587 32.1954 22.9123 32.078 22.9042 31.9921L22.4096 30.2239L22.0821 29.0123L21.7313 27.6831C21.725 27.6571 21.719 27.6314 21.7105 27.6068C21.6673 27.4781 21.6338 27.3455 21.5985 27.214C21.3148 28.3805 21.0269 29.6029 20.7174 30.7597L20.2836 32.3186L20.1237 32.9209C20.0836 33.0646 20.0414 33.2068 19.9991 33.3498L19.9726 33.5427C19.9453 33.7534 19.8557 34.366 19.7953 34.5538C19.6985 34.8551 19.7074 35.2812 19.3628 35.3896C19.1416 35.4592 18.7644 35.3068 18.5814 35.1929C18.2215 35.7905 17.2846 35.7694 16.9925 35.1426L16.3622 33.7447C16.2177 33.418 16.0617 32.9128 16.1123 32.539L16.1464 32.286C16.1577 32.0792 16.1676 31.8738 16.1858 31.6677C16.1969 31.5411 16.1978 31.4103 16.207 31.2819C16.3388 29.3711 16.5757 27.4684 16.7218 25.5581L16.6984 26.0407C16.7106 25.9237 16.702 25.8728 16.7129 26.0015C16.7215 25.9262 16.724 25.8277 16.7309 25.7451L16.9157 26.3002C16.8785 28.0893 16.7745 30.2116 16.7395 31.9918C16.7213 32.9128 16.665 32.8634 17.0632 33.7249L17.5748 34.8282C17.6278 34.904 17.804 34.9315 17.8783 34.8921C18.0075 34.8234 18.079 34.8411 18.067 34.5319L17.972 33.5455C17.9408 33.2363 17.8505 32.9996 17.9073 32.6361L18.1329 30.9916L19.0515 24.58L19.1519 23.8854C19.1642 23.7761 19.178 23.6678 19.1932 23.5585C17.7402 23.813 16.2526 23.8171 14.7651 23.5766C14.6036 24.4473 14.4097 25.3264 14.2405 26.1968C14.2345 26.2287 14.2282 26.2607 14.2216 26.2923L12.9778 32.2853C12.8429 32.9243 12.7993 33.338 12.3734 33.848L11.8074 34.5214C11.7261 34.6137 11.861 34.7668 11.9456 34.7473L13.2797 33.8782C13.568 33.6817 13.6538 33.406 13.7649 33.0847C14.2483 31.6872 15.5664 27.3656 16.0453 26.2221L16.7369 25.4754C16.5391 26.136 16.3452 26.7907 16.17 27.459C15.9345 28.3026 15.717 29.1623 15.4737 29.9998L15.1624 31.0771C15.1005 31.2928 15.077 31.4414 15.0066 31.6677C14.9643 31.804 14.9185 31.9401 14.8889 32.0799C14.886 32.0934 14.8816 32.1093 14.8769 32.1232C14.7788 32.4053 14.7135 32.6891 14.6368 32.9702L14.3927 33.7117C14.2407 34.1346 14.0159 34.4212 13.6759 34.6634L12.4065 35.5242C12.0293 35.7733 11.5836 35.7049 11.256 35.3684C10.8617 34.9633 10.82 34.3641 11.1649 33.9101L11.3412 33.7023L11.8289 33.1045C11.9129 32.983 11.9719 32.854 12.0062 32.7017L12.1781 31.8908L12.9355 28.3015C13.0128 27.923 13.0898 27.5441 13.1671 27.1649L13.8576 23.8999L14.0315 22.9825C14.0418 22.9225 14.063 22.867 14.0917 22.8188C14.0606 22.783 14.0656 22.729 14.0775 22.7108C14.0803 22.7063 14.075 22.7004 14.075 22.6959L14.0807 22.5725C14.0797 22.5464 14.0676 22.5766 14.0769 22.4684C14.0775 22.4614 14.0709 22.4545 14.0797 22.4486C14.0976 22.4366 14.0495 22.376 14.0797 22.2956L14.1334 22.1449C14.1312 22.1366 14.1334 22.1279 14.1352 22.1196L14.0964 22.1148C14.0281 22.1399 13.7058 22.1292 13.6065 22.1109C13.267 22.0487 13.0379 21.8173 12.9181 21.4642L12.6588 20.6308C12.5297 20.2137 12.4995 19.9232 12.4925 19.4938C12.488 19.2142 12.5162 19.0405 12.5837 18.7777C12.4364 18.6296 12.3027 18.5648 12.2629 18.5164L11.8399 17.9616C11.7446 17.8402 11.6166 17.14 11.5657 17.0401C11.5097 16.9301 11.5128 16.8101 11.4667 16.7164C11.4641 16.7112 11.4616 16.7049 11.4607 16.6987C11.4418 16.5728 11.3925 16.4627 11.3525 16.3469L11.2834 16.0412C11.2471 15.9173 11.2175 15.7896 11.1837 15.6647C11.102 15.3639 11.0521 15.0548 10.9824 14.7508C10.9462 14.5923 10.9162 14.433 10.8884 14.273C10.8742 14.1911 10.8518 14.1117 10.8348 14.0308L10.3437 11.6444C10.2738 11.3149 10.2167 11.099 10.2162 10.7211C10.2158 10.3797 10.293 9.88566 10.4534 9.57929C10.561 9.37251 10.6676 9.16158 10.8291 8.98844C11.1389 8.65817 11.5203 8.39921 11.9812 8.45307C12.5795 8.52301 12.8889 9.07693 12.9232 9.70352C12.9374 9.98737 12.9052 10.2448 12.8607 10.4904C12.8387 10.6081 12.8125 10.7222 12.7847 10.835L12.9639 12.2607C13.072 13.01 13.2793 14.3103 13.4816 14.9812C13.5054 15.0599 13.5144 15.1189 13.5514 15.1925C13.6019 15.293 13.5962 15.3532 13.5962 15.3532L13.7106 15.4583C13.7971 15.5386 14.1365 15.7478 14.2599 15.8094C14.5096 15.9341 14.5244 15.9382 14.8116 15.9832C14.8903 15.9956 14.871 16.0206 14.9088 16.0366C14.8292 15.8201 14.7984 15.5934 14.7996 15.3604C14.8006 15.1772 14.8574 14.8175 14.9419 14.6554L15.045 14.4111C15.1984 14.1375 15.4144 13.8931 15.6895 13.7727L15.9507 13.7061C16.0675 13.6757 16.2701 13.6894 16.3853 13.7297C16.4956 13.7681 16.4666 13.7921 16.5364 13.8646C16.5542 13.8831 16.5491 13.9073 16.5967 13.9424C16.5178 14.0015 16.5645 14.0004 16.5273 14.0055C16.4814 14.012 16.5039 14.0496 16.4503 14.0679C16.3483 14.1028 16.3527 14.1648 16.3238 14.1738C16.1258 14.2353 16.1924 14.2478 16.0481 14.3476C15.8928 14.455 15.9267 14.4951 15.8923 14.5294C15.8463 14.5751 15.8684 14.5797 15.8598 14.587C15.8228 14.6181 15.8231 14.6639 15.814 14.7011C15.8063 14.7327 15.7686 14.7424 15.7307 14.9062C15.7087 15.0014 15.6712 15.0921 15.6651 15.1875C15.6591 15.2372 15.6566 15.2871 15.6487 15.3374C15.6446 15.3631 15.6547 15.3887 15.655 15.4148C15.6627 15.6122 15.7515 15.8572 15.8733 16.0098C15.9633 16.1225 16.1867 16.2913 16.3257 16.3256C16.3992 16.3437 16.3634 16.3584 16.4471 16.3616C16.5605 16.3661 16.5965 16.3817 16.7159 16.3485L16.8752 16.309C17.1718 16.1918 17.2488 16.1313 17.4427 15.8586C17.5276 15.7392 17.5795 15.4939 17.5815 15.3458C17.5849 15.0949 17.5287 14.8883 17.4014 14.6765C17.3805 14.6417 17.3461 14.6373 17.3532 14.5828C17.3606 14.5254 17.0946 14.2997 17.0626 14.2636C17.0112 14.2054 16.8992 14.2411 16.8923 14.189C16.8881 14.1574 16.8056 14.1366 16.8021 14.1373C16.7302 14.1504 16.6283 14.0858 16.5967 14.0269C16.6089 14.0055 16.644 13.9995 16.673 13.9902C16.6433 13.962 16.6784 13.9577 16.68 13.927C16.6807 13.9129 16.55 13.8741 16.8015 13.8351C17.1792 13.7765 17.6306 13.9001 17.8807 14.2383C17.9846 14.3788 18.078 14.5249 18.1378 14.6963C18.1613 14.7637 18.1929 14.8002 18.1886 14.852L18.2258 14.9731C18.2867 15.278 18.2904 15.6618 18.1974 15.9578C18.1233 16.1936 18.0615 16.3264 17.9179 16.5254L18.157 16.583C18.2109 16.5681 18.2467 16.6131 18.2905 16.6028C18.2933 16.6021 18.2962 16.6021 18.298 16.6031C18.3416 16.6302 18.3946 16.6236 18.4451 16.6295L18.5621 16.6805C18.7574 16.7314 18.8873 16.8327 19.0564 16.9473C19.285 17.1021 19.0738 17.036 19.439 17.1451L20.1337 17.3227C20.0868 17.2839 19.9373 16.9697 19.9003 16.8724C19.8005 16.6102 19.7654 16.367 19.7649 16.0838C19.7647 15.9004 19.8195 15.5274 19.8987 15.3666C19.9233 15.3166 19.9523 15.1862 20.0334 15.0421C20.1791 14.7833 20.3811 14.5542 20.6337 14.4242L20.9022 14.3412C21.0218 14.302 21.2351 14.3095 21.3545 14.3468C21.4756 14.3847 21.4361 14.4085 21.5132 14.4794C21.5283 14.4933 21.5284 14.5239 21.5754 14.5571C21.4942 14.6162 21.5414 14.6162 21.5038 14.6203C21.4582 14.6251 21.4788 14.6657 21.4243 14.6844C21.3167 14.7214 21.3268 14.7822 21.295 14.793C21.0809 14.8654 21.1148 14.9187 21.0142 14.9818C20.9964 14.9929 20.8875 15.0882 20.883 15.1255C20.8762 15.1808 20.8327 15.1798 20.8274 15.2341C20.8263 15.2455 20.8033 15.2535 20.7921 15.2955C20.787 15.3177 20.7842 15.342 20.7792 15.3631L20.7316 15.4575C20.7039 15.5565 20.6358 15.8019 20.6297 15.8944C20.6234 15.9492 20.6218 16.004 20.6133 16.0599C20.6091 16.0876 20.6192 16.1161 20.6199 16.1442C20.6339 16.4738 20.7747 16.7841 21.0148 16.9794C21.2402 17.1626 21.2888 17.133 21.3451 17.1698C21.3923 17.2007 21.5694 17.2048 21.6019 17.1979C21.9994 17.1145 22.2022 17.0128 22.4353 16.6303C22.5211 16.4895 22.5733 16.2381 22.5751 16.0685C22.5782 15.7806 22.5264 15.5862 22.3943 15.3399C22.3753 15.3045 22.3382 15.2886 22.3463 15.2379C22.3554 15.1814 22.0834 14.9232 22.0536 14.892C21.9936 14.829 21.8854 14.8604 21.8792 14.8087C21.8755 14.7781 21.7918 14.7537 21.787 14.7546C21.72 14.7677 21.6136 14.7051 21.5754 14.6419C21.5883 14.6206 21.6273 14.6132 21.6552 14.6054C21.6224 14.5745 21.6611 14.575 21.6621 14.5426C21.6626 14.5282 21.5569 14.5001 21.7123 14.4621C21.8193 14.4359 22.0238 14.4433 22.1388 14.4587C22.327 14.4838 22.5989 14.6089 22.7435 14.7501C22.9231 14.9254 23.0505 15.1599 23.1378 15.4038C23.1621 15.4717 23.1888 15.5099 23.1855 15.5645C23.1841 15.587 23.2107 15.6241 23.2217 15.6883C23.3165 16.2427 23.2603 16.7533 22.9637 17.2319L23.211 17.1743C23.4182 17.1207 23.8876 16.9563 24.0814 16.8725C24.1098 16.8603 24.1401 16.8531 24.1684 16.8416C24.254 16.8062 24.3884 16.7273 24.4704 16.7025C24.5055 16.6918 24.5997 16.6171 24.6985 16.5945C24.8562 16.5571 24.9679 16.513 25.1354 16.4988C24.9737 16.2413 24.8655 15.8886 24.8325 15.5766C24.7857 15.1335 24.9136 14.6394 25.149 14.2789C25.1736 14.2411 25.1993 14.2249 25.23 14.1665C25.2738 14.0833 25.3151 14.106 25.3417 14.0773L25.6297 13.8383L25.8635 13.7349C25.9502 13.7143 26.0777 13.5923 26.1206 13.6335C26.1639 13.6752 26.3598 13.5577 26.4796 13.629L26.5569 13.6821C26.5415 13.7061 26.4907 13.7191 26.4657 13.7283C26.4934 13.751 26.4861 13.7267 26.4657 13.7918C26.4801 13.8229 26.5951 13.8023 26.3623 13.9101C26.1855 13.992 25.9979 14.1757 25.884 14.3432C25.7748 14.5038 25.6096 14.7462 25.5635 14.9289C25.5518 14.9753 25.5536 15.0079 25.5361 15.0302L25.5137 15.2318C25.5033 15.4115 25.5462 15.6417 25.6235 15.7987C25.7282 16.0116 25.7628 16.0877 25.9695 16.256C26.1495 16.4026 26.5085 16.4429 26.6496 16.4167L26.8499 16.3611C27.143 16.2293 27.3775 15.9286 27.4443 15.5881C27.4822 15.3948 27.4972 15.2336 27.4496 15.0388C27.423 14.9295 27.4645 15.0301 27.4039 14.8872C27.2776 14.5895 27.1059 14.4268 27.0789 14.3633C27.0311 14.2505 26.6698 13.9737 26.6622 13.9345C26.6513 13.8782 26.6258 13.8706 26.6098 13.8373C26.5862 13.7902 26.5859 13.7902 26.5569 13.7665C26.6481 13.7171 26.5995 13.7114 26.6411 13.7131C26.6948 13.7153 26.6801 13.6625 26.7484 13.6669C26.8584 13.6742 26.9176 13.6216 26.9556 13.6312L27.226 13.7152C27.4332 13.7751 27.4632 13.8388 27.6051 13.9282C27.6679 13.9677 27.6715 13.9543 27.7171 13.9983C27.7402 14.0198 27.7594 14.0454 27.7894 14.0586C27.7925 14.0604 27.7953 14.0625 27.7975 14.0652C27.8818 14.1829 27.8966 14.1129 28.0121 14.299C28.1136 14.4628 28.2007 14.5802 28.2518 14.781C28.3789 15.2806 28.3516 15.8105 28.1219 16.274C28.7074 16.0835 29.1484 15.8386 29.5979 15.3888C29.5859 15.3722 29.5891 15.3764 29.5979 15.3888L29.6847 15.1862C29.7442 15.0142 29.9088 14.3712 29.9361 14.154C29.9524 14.0249 29.9816 13.9628 29.9841 13.9261L30.162 12.8259L30.437 10.8274C30.4405 10.7475 30.0431 9.50705 30.6314 8.82399C30.9714 8.42912 31.5004 8.45462 31.9087 8.70254C32.1192 8.83038 32.3785 9.08928 32.5115 9.30245C32.8183 9.79419 32.9494 10.3991 32.913 10.9852ZM31.1862 10.9133L31.1871 10.9068L31.1856 10.9161L31.1862 10.9133Z" fill="white"/>
</svg>
