<svg width="138" height="23" viewBox="0 0 138 23" fill="none" xmlns="http://www.w3.org/2000/svg">
<path d="M64.9112 10.0642C65.0614 9.86886 65.3386 9.51272 65.4887 8.92682C65.5696 8.63962 65.6158 8.30646 65.5927 7.96181C65.5696 7.60567 65.5118 7.29549 65.327 6.8934C64.9805 6.1122 64.1951 5.29654 63.0978 4.71064C62.5434 4.43492 61.9427 4.20515 61.2844 4.06729C60.6144 3.92943 59.8983 3.8605 59.1591 3.87199C56.5602 3.90646 53.7419 4.77956 51.0275 5.71011C48.3132 6.6981 45.645 7.91586 43.0115 9.23701C39.3269 11.0866 35.8733 12.9132 32.466 14.4067C29.0701 15.9002 25.7551 17.0835 22.521 17.7958C19.2869 18.531 16.1683 18.7608 13.2344 18.5195C11.7675 18.3817 10.3237 18.06 9.04162 17.4166C8.40635 17.095 7.80572 16.6814 7.30905 16.1874C6.78928 15.6934 6.35036 15.0271 6.18866 14.2918C5.84214 12.7984 6.63912 11.3049 7.78262 10.6156C8.33704 10.2595 9.01852 10.0756 9.57294 9.99523C10.1389 9.90332 10.6933 9.83439 11.2478 9.81142C13.4423 9.69654 15.4406 10.0412 17.1962 10.5122C18.9635 11.0062 20.4997 11.6381 21.8511 12.3159C23.214 12.9937 24.3806 13.8208 25.2123 14.8088C26.0439 15.7853 26.4597 16.9456 26.4828 17.9681C26.5175 19.002 26.2403 19.8866 25.8475 20.5759C25.0506 21.966 23.9186 22.4944 23.1794 22.7472C22.4055 22.9999 21.8857 22.977 21.597 22.977C21.3082 22.9655 21.2158 22.9425 21.2158 22.9425C21.2158 22.9425 21.3082 22.9425 21.597 22.9195C21.8857 22.885 22.3824 22.8506 23.1101 22.5519C23.8031 22.2532 24.8195 21.6788 25.4779 20.3806C25.8013 19.7373 25.9977 18.9216 25.9284 18.0025C25.8591 17.095 25.4664 16.107 24.6925 15.2568C23.9186 14.3952 22.8213 13.6715 21.5046 13.0626C20.1763 12.4537 18.6632 11.8793 16.9652 11.4427C15.2673 11.0292 13.3615 10.7535 11.3286 10.9028C10.8204 10.9373 10.3006 11.0062 9.78085 11.0981C9.24953 11.19 8.82216 11.3164 8.4179 11.5806C7.62091 12.0861 7.14735 13.0741 7.37835 14.0161C7.49386 14.4871 7.77107 14.9122 8.17534 15.2913C8.59115 15.6819 9.07627 16.0151 9.61914 16.2793C10.7049 16.8193 11.9985 17.095 13.3615 17.1984C16.1105 17.3822 19.1136 17.1409 22.2091 16.4057C25.3162 15.6819 28.5388 14.5216 31.8538 13.0281C35.1803 11.5461 38.6108 9.70802 42.3069 7.83544C44.952 6.49131 47.6086 5.15868 50.3345 3.9639C51.6975 3.36651 53.0835 2.81507 54.4811 2.2981C55.8903 1.79262 57.3572 1.34458 58.9281 1.11481C59.8174 0.976954 60.753 0.931001 61.6771 0.99993C62.6242 1.06886 63.5482 1.27565 64.4261 1.58583C66.1702 2.21768 67.7526 3.378 68.7228 4.91742C69.208 5.65267 69.5545 6.57173 69.6815 7.3874C69.8201 8.21455 69.8086 8.99575 69.6931 9.69654C69.4852 11.0981 68.8615 12.1895 68.3186 12.8443C67.6718 13.6485 66.7477 14.2803 65.7775 14.602C64.8072 14.9237 63.837 14.9582 62.9707 14.7858C61.2266 14.4756 59.8752 13.2924 59.3439 12.1665C58.7779 11.0407 58.8126 10.0297 59.0089 9.40933C59.2168 8.77748 59.5749 8.52473 59.8752 8.5592C60.4758 8.63962 60.8916 9.69654 61.8734 10.3284C62.7397 10.9373 64.2528 10.9258 64.8881 10.0297L64.9112 10.0642Z" fill="#BFA378"/>
<path d="M5.70354 17.6005C6.18866 17.8647 7.06649 18.4161 8.3948 18.8757C9.71155 19.3467 11.4788 19.7028 13.373 19.8407C16.7227 20.0704 20.2802 19.7717 23.7107 19.0135C28.5157 17.9566 32.6392 16.4746 36.1621 14.9122C37.9293 14.1425 39.5117 13.2809 41.1173 12.5571C42.7112 11.8334 44.3514 11.3279 45.9338 11.2589C47.5162 11.1785 49.064 11.5461 50.219 12.3503C51.3741 13.1315 52.171 14.2574 52.4136 15.4522C52.6677 16.6584 52.3443 17.7728 51.8361 18.5999C51.3279 19.4386 50.6233 20.0245 49.8956 20.3576C49.1564 20.6793 48.4171 20.7597 47.805 20.6793C47.1812 20.5989 46.6615 20.4036 46.2457 20.1853C45.4025 19.7258 44.9636 19.1743 44.6863 18.7608C44.1897 17.9106 44.259 17.6464 44.2359 17.6579C44.259 17.6464 44.2821 17.8991 44.8596 18.6344C45.1599 18.979 45.6335 19.4501 46.4305 19.7947C47.2043 20.1279 48.394 20.3691 49.5953 19.7373C50.1728 19.4156 50.7503 18.8986 51.1315 18.1749C51.5127 17.4626 51.7206 16.555 51.4896 15.6475C51.2701 14.7399 50.5886 13.8438 49.6184 13.2349C48.6597 12.6146 47.3892 12.3388 46.0031 12.4422C44.617 12.5341 43.1732 13.0166 41.6601 13.7289C40.1586 14.4412 38.5415 15.3602 36.7396 16.1759C33.159 17.8302 28.9546 19.3926 24.0341 20.507C20.5112 21.2997 17.023 22.0005 13.4654 22.5634C11.421 22.8736 9.29573 22.9425 7.48231 22.6668C5.66889 22.414 4.21353 21.8166 3.5205 21.4146C1.82258 20.4725 0.632886 18.9905 0.217069 17.7383C-0.221848 16.4746 0.0553628 15.567 0.598234 15.3373C1.17576 15.096 1.89189 15.4407 2.73507 15.8887C3.53205 16.3482 4.56004 16.9341 5.69199 17.5775L5.70354 17.6005Z" fill="#BFA378"/>
<path d="M58.8472 10.6386C59.032 12.2814 60.522 13.4532 62.1737 13.2694C63.8255 13.0856 65.0036 11.6036 64.8188 9.96077C64.634 8.31795 63.144 7.14614 61.4923 7.32996C59.8405 7.51377 58.6624 8.99575 58.8472 10.6386Z" fill="#BFA378"/>
<path d="M48.7243 17.4812C48.9612 16.2085 48.116 14.9858 46.8364 14.7501C45.5568 14.5145 44.3274 15.3552 44.0905 16.6279C43.8535 17.9006 44.6988 19.1233 45.9784 19.359C47.258 19.5946 48.4874 18.7539 48.7243 17.4812Z" fill="#BFA378"/>
<path d="M72.1187 10.0642C71.9685 9.86886 71.6913 9.51272 71.5412 8.92682C71.4603 8.63962 71.4141 8.30646 71.4372 7.96181C71.4603 7.60567 71.5181 7.29549 71.7029 6.8934C72.0494 6.1122 72.8348 5.29654 73.9321 4.71064C74.4865 4.43492 75.0871 4.20515 75.7455 4.06729C76.4155 3.92943 77.1316 3.8605 77.8708 3.87199C80.4697 3.90646 83.288 4.77956 86.0023 5.71011C88.7167 6.6981 91.3848 7.91586 94.0183 9.23701C97.7029 11.0866 101.157 12.9132 104.564 14.4067C107.96 15.9002 111.275 17.0835 114.509 17.7958C117.743 18.531 120.862 18.7608 123.795 18.5195C125.262 18.3817 126.706 18.06 127.988 17.4166C128.624 17.095 129.224 16.6814 129.721 16.1874C130.241 15.6934 130.68 15.0271 130.841 14.2918C131.188 12.7984 130.391 11.3049 129.247 10.6156C128.693 10.2595 128.011 10.0756 127.457 9.99523C126.891 9.90332 126.337 9.83439 125.782 9.81142C123.588 9.69654 121.589 10.0412 119.834 10.5122C118.066 11.0062 116.53 11.6381 115.179 12.3159C113.816 12.9937 112.649 13.8208 111.818 14.8088C110.986 15.7853 110.57 16.9456 110.547 17.9681C110.512 19.002 110.79 19.8866 111.182 20.5759C111.979 21.966 113.111 22.4944 113.85 22.7472C114.624 22.9999 115.144 22.977 115.433 22.977C115.722 22.9655 115.814 22.9425 115.814 22.9425C115.814 22.9425 115.722 22.9425 115.433 22.9195C115.144 22.885 114.647 22.8506 113.92 22.5519C113.227 22.2532 112.21 21.6788 111.552 20.3806C111.229 19.7373 111.032 18.9216 111.101 18.0025C111.171 17.095 111.563 16.107 112.337 15.2568C113.111 14.3952 114.209 13.6715 115.525 13.0626C116.854 12.4537 118.367 11.8793 120.065 11.4427C121.763 11.0292 123.668 10.7535 125.701 10.9028C126.209 10.9373 126.729 11.0062 127.249 11.0981C127.78 11.19 128.208 11.3164 128.612 11.5806C129.409 12.0861 129.883 13.0741 129.652 14.0161C129.536 14.4871 129.259 14.9122 128.855 15.2913C128.439 15.6819 127.954 16.0151 127.411 16.2793C126.325 16.8193 125.031 17.095 123.668 17.1984C120.919 17.3822 117.916 17.1409 114.821 16.4057C111.714 15.6819 108.491 14.5216 105.176 13.0281C101.85 11.5461 98.4191 9.70802 94.7229 7.83544C92.0779 6.49131 89.4213 5.15868 86.6954 3.9639C85.3324 3.36651 83.9464 2.81507 82.5487 2.2981C81.1396 1.79262 79.6727 1.34458 78.1018 1.11481C77.2124 0.976954 76.2768 0.931001 75.3528 0.99993C74.4057 1.06886 73.4816 1.27565 72.6038 1.58583C70.8597 2.21768 69.2773 3.378 68.307 4.91742C67.8219 5.65267 67.4754 6.57173 67.3483 7.3874C67.2097 8.21455 67.2213 8.99575 67.3368 9.69654C67.5447 11.0981 68.1684 12.1895 68.7113 12.8443C69.3581 13.6485 70.2822 14.2803 71.2524 14.602C72.2226 14.9237 73.1929 14.9582 74.0592 14.7858C75.8033 14.4756 77.1431 13.2924 77.686 12.1665C78.252 11.0407 78.2173 10.0297 78.021 9.40933C77.8131 8.77748 77.455 8.52473 77.1547 8.5592C76.5541 8.63962 76.1382 9.69654 75.1565 10.3284C74.2902 10.9373 72.7771 10.9258 72.1418 10.0297L72.1187 10.0642Z" fill="#BFA378"/>
<path d="M131.326 17.6005C130.841 17.8647 129.963 18.4161 128.635 18.8757C127.318 19.3467 125.551 19.7028 123.657 19.8407C120.307 20.0704 116.75 19.7717 113.319 19.0135C108.514 17.9566 104.391 16.4746 100.868 14.9122C99.1006 14.1425 97.5181 13.2809 95.9126 12.5571C94.3187 11.8334 92.6785 11.3279 91.0961 11.2589C89.5137 11.1785 87.9659 11.5461 86.8109 12.3503C85.6558 13.1315 84.8588 14.2574 84.6163 15.4522C84.3622 16.6584 84.6856 17.7728 85.1938 18.5999C85.702 19.4386 86.4066 20.0245 87.1343 20.3576C87.8735 20.6793 88.6127 20.7597 89.2249 20.6793C89.8486 20.5989 90.3684 20.4036 90.7842 20.1853C91.6274 19.7258 92.0663 19.1743 92.3435 18.7608C92.8402 17.9106 92.7709 17.6464 92.794 17.6579C92.7709 17.6464 92.7478 17.8991 92.1703 18.6344C91.87 18.979 91.3964 19.4501 90.5994 19.7947C89.8255 20.1279 88.6358 20.3691 87.4346 19.7373C86.8571 19.4156 86.2795 18.8986 85.8984 18.1749C85.5172 17.4626 85.3093 16.555 85.5403 15.6475C85.7598 14.7399 86.4413 13.8438 87.4115 13.2349C88.3702 12.6146 89.6407 12.3388 91.0268 12.4422C92.4128 12.5341 93.8567 13.0166 95.3698 13.7289C96.8713 14.4412 98.4884 15.3602 100.29 16.1759C103.871 17.8302 108.075 19.3926 112.996 20.507C116.519 21.2997 120.007 22.0005 123.564 22.5634C125.609 22.8736 127.734 22.9425 129.548 22.6668C131.361 22.414 132.816 21.8166 133.509 21.4146C135.207 20.4725 136.397 18.9905 136.813 17.7383C137.24 16.4746 136.975 15.567 136.432 15.3373C135.854 15.096 135.138 15.4407 134.295 15.8887C133.498 16.3482 132.47 16.9341 131.338 17.5775L131.326 17.6005Z" fill="#BFA378"/>
<path d="M78.1942 10.6386C78.0094 12.2814 76.5194 13.4532 74.8677 13.2694C73.216 13.0856 72.0378 11.6036 72.2226 9.96077C72.4074 8.31795 73.8974 7.14614 75.5492 7.32996C77.2009 7.51377 78.379 8.99575 78.1942 10.6386Z" fill="#BFA378"/>
<path d="M92.9673 17.3247C92.8171 18.6114 91.6505 19.542 90.3568 19.3926C89.0632 19.2433 88.1276 18.083 88.2778 16.7963C88.4279 15.5096 89.5945 14.579 90.8882 14.7284C92.1818 14.8777 93.1174 16.0381 92.9673 17.3247Z" fill="#BFA378"/>
</svg>
