<svg width="30" height="13" viewBox="0 0 30 13" fill="none" xmlns="http://www.w3.org/2000/svg">
<path d="M14.5572 0.780518C16.0836 0.780518 17.518 1.36647 18.5965 2.43301L18.9717 2.80661L17.5293 4.22919L17.1541 3.85558C16.4604 3.17064 15.5371 2.79384 14.5555 2.79384C12.5294 2.79384 10.8816 4.42078 10.8816 6.42133C10.8816 8.42188 12.5294 10.0488 14.5555 10.0488C15.1603 10.0488 15.8492 9.88118 16.268 9.6337C16.6593 9.40219 16.8372 9.24253 18.6418 7.59643C18.7194 7.52459 18.8504 7.40484 18.9895 7.27551L21.4781 4.84069V7.60282C21.4781 7.60282 19.3549 9.68639 19.0978 9.92109C18.0354 10.8854 17.788 11.0818 17.3174 11.3612C16.5849 11.7939 15.5274 12.0637 14.5555 12.0637C11.4055 12.0637 8.84253 9.53312 8.84253 6.42293C8.84253 3.31274 11.4072 0.780518 14.5572 0.780518Z" fill="#BFA378"/>
<path d="M24.2853 12.062C22.7588 12.062 21.3245 11.4761 20.2459 10.4095L19.8773 10.0343L21.3197 8.61176L21.6883 8.98697C22.3821 9.67191 23.3054 10.0487 24.2869 10.0487C26.3131 10.0487 27.9609 8.42177 27.9609 6.42122C27.9609 4.42067 26.3131 2.79373 24.2869 2.79373C23.6822 2.79373 22.9933 2.96137 22.5745 3.20884C22.1832 3.44035 22.0053 3.60001 20.2007 5.24612C20.1231 5.31796 19.9921 5.43771 19.853 5.56703L17.3644 8.00186V5.23973C17.3644 5.23973 19.4876 3.15616 19.7447 2.92146C20.8071 1.9571 21.0545 1.76072 21.525 1.48132C22.2575 1.04864 23.3151 0.778809 24.2869 0.778809C27.4369 0.778809 29.9999 3.30943 29.9999 6.41962C29.9999 9.52981 27.4369 12.0604 24.2869 12.0604L24.2853 12.062Z" fill="#BFA378"/>
<path d="M9.0464 9.36366C8.73108 9.59836 8.3155 9.82348 7.94358 9.94961L7.91609 9.95919C6.71948 10.3536 5.36278 10.1173 4.37477 9.3413C3.8751 8.95013 3.48378 8.43603 3.24122 7.85646C3.19271 7.7415 3.15067 7.62176 3.11509 7.50361L3.08275 7.39823H8.22009C8.16511 7.0853 8.13601 6.76438 8.13601 6.43548C8.13601 6.10658 8.16511 5.78726 8.22009 5.47432H3.08437L3.11671 5.36894C3.15228 5.25399 3.19271 5.14063 3.23799 5.02887C3.47893 4.45249 3.86216 3.94158 4.34728 3.5536L4.36668 3.53764C5.03129 3.01076 5.8673 2.72017 6.72109 2.72017C7.57489 2.72017 8.42707 3.04269 9.07874 3.52486C9.41832 2.91656 9.73688 2.5206 10.2689 2.02405C9.80803 1.66322 9.30998 1.37583 8.7715 1.16987C8.6955 1.14113 8.62112 1.11399 8.54512 1.09004L8.51763 1.08046C8.44809 1.05811 8.37856 1.03575 8.30741 1.01659L8.25728 1.00222C8.1926 0.984661 8.1263 0.967099 8.06 0.951133L7.98724 0.935167C7.92579 0.920797 7.86596 0.908024 7.80451 0.896848L7.71072 0.880882C7.65413 0.871302 7.59915 0.861723 7.54255 0.85374C7.51183 0.84895 7.47949 0.845757 7.44715 0.840967L7.3954 0.83458C7.35497 0.829791 7.31455 0.825001 7.27412 0.820211C7.23046 0.815421 7.18518 0.812228 7.13991 0.810631L7.07199 0.805841C7.04774 0.804245 7.02348 0.802648 6.99923 0.801052C6.90544 0.796262 6.8068 0.789875 6.71624 0.794665C6.62245 0.794665 6.53028 0.797858 6.43811 0.801052C6.41386 0.801052 6.39122 0.804245 6.36696 0.805841L6.30228 0.810631C6.25539 0.813824 6.20849 0.817018 6.16321 0.821807C6.12441 0.825001 6.08398 0.829791 6.04517 0.83458L5.99019 0.840967C5.95785 0.84416 5.92713 0.84895 5.89479 0.852143C5.83981 0.860126 5.78483 0.869706 5.72985 0.879285L5.63121 0.896848C5.57138 0.908024 5.51155 0.920797 5.45172 0.93357L5.37572 0.951133C5.31103 0.967099 5.24635 0.983065 5.18167 1.00063L5.13639 1.0134C5.05716 1.03575 4.98763 1.05651 4.91971 1.07886L4.89869 1.08525C4.81298 1.11399 4.7386 1.13953 4.66583 1.16827C4.03519 1.40936 3.46114 1.75263 2.95339 2.1901L2.9259 2.21405C2.87577 2.25875 2.82726 2.30186 2.77875 2.34816L2.72862 2.39606C2.68657 2.43757 2.64453 2.47749 2.60411 2.519C2.58147 2.54135 2.56045 2.56371 2.53942 2.58606C2.50385 2.62438 2.46827 2.6611 2.43432 2.70101C2.40844 2.72975 2.38257 2.75849 2.35832 2.78883C2.32759 2.82395 2.29848 2.85908 2.26938 2.8942C2.24027 2.92933 2.21278 2.96445 2.18367 3.00118C2.15457 3.0379 2.13355 3.06664 2.11091 3.09538C2.07857 3.13689 2.04946 3.18 2.01874 3.2231C1.99448 3.25823 1.97669 3.28058 1.96052 3.30453C1.92656 3.35562 1.89261 3.40671 1.86027 3.4594L1.81984 3.52327C1.78103 3.58713 1.74384 3.651 1.70826 3.71486L1.68724 3.75158C1.55626 3.98948 1.44307 4.23855 1.34928 4.49241L1.38647 4.50837L1.3412 4.51316C1.31371 4.5898 1.28622 4.66644 1.26196 4.74467L1.24256 4.80854C1.22315 4.8724 1.20375 4.93626 1.18758 5.00172L1.16656 5.08794C1.152 5.14702 1.13745 5.20449 1.12613 5.26357C1.11966 5.29071 1.11481 5.31785 1.10996 5.345L1.10672 5.36256C1.09541 5.41844 1.0857 5.47432 1.076 5.5318C1.07115 5.56692 1.06468 5.60205 1.05983 5.63717C1.05336 5.68827 1.04528 5.73936 1.04043 5.79045C1.03234 5.8607 1.02587 5.92935 1.02102 5.9996L1.01779 6.03313C1.01617 6.05868 1.01294 6.08582 1.01132 6.11137C1.00647 6.20876 1.00323 6.30775 1.00162 6.40514L1.18758 6.41313L1 6.43228V6.45943C1 6.55682 1.00485 6.65421 1.0097 6.7532C1.0097 6.78035 1.01294 6.80589 1.01617 6.83303L1.0194 6.86656C1.02426 6.93681 1.03072 7.00706 1.03881 7.07572C1.04366 7.12681 1.05175 7.1779 1.05821 7.2274C1.06306 7.26252 1.06792 7.29765 1.07438 7.33277C1.08409 7.38865 1.09379 7.44613 1.10511 7.50201L1.10834 7.51798C1.11319 7.54512 1.11966 7.57386 1.12451 7.601C1.13745 7.66008 1.15038 7.71915 1.16656 7.77663L1.18758 7.86284C1.20536 7.92831 1.22315 7.99217 1.24256 8.05603L1.26196 8.1199C1.28622 8.19813 1.31371 8.27477 1.3412 8.35141L1.61286 8.262L1.34766 8.37057C1.44145 8.62443 1.55626 8.8735 1.68724 9.11139L1.70826 9.14811C1.74384 9.21198 1.78103 9.27584 1.81984 9.33811L1.86188 9.40357C1.89422 9.45466 1.92818 9.50735 1.96214 9.55684C1.97508 9.5776 1.98963 9.59676 2.00418 9.61752L2.01874 9.63827C2.04946 9.68138 2.08018 9.72449 2.11091 9.7676C2.13516 9.79953 2.15942 9.83146 2.18367 9.8618C2.21116 9.89852 2.24027 9.93364 2.26938 9.96877C2.29848 10.0039 2.32759 10.039 2.3567 10.0741C2.38257 10.1029 2.40844 10.1332 2.43432 10.162C2.46827 10.2003 2.50385 10.2386 2.53942 10.2753C2.56045 10.2977 2.58308 10.3216 2.60572 10.344C2.64615 10.3855 2.68657 10.427 2.72862 10.4669L2.77875 10.5148C2.82726 10.5595 2.87577 10.6042 2.92428 10.6473L2.94045 10.6617C3.45952 11.1087 4.03357 11.452 4.65937 11.6915C4.7386 11.7218 4.81137 11.7474 4.88737 11.7729L4.91971 11.7841C4.98763 11.8065 5.05716 11.8272 5.12669 11.848L5.18005 11.8623C5.24473 11.8799 5.30942 11.8959 5.3741 11.9118L5.44848 11.9294C5.50831 11.9422 5.56814 11.9549 5.62797 11.9677L5.72661 11.9853C5.78159 11.9949 5.83657 12.0044 5.89155 12.0124C5.92228 12.0172 5.95462 12.0204 5.98696 12.0252L6.04194 12.0316C6.08075 12.0364 6.11955 12.0412 6.15998 12.0444C6.20687 12.0491 6.25539 12.0523 6.3039 12.0555L6.36373 12.0603C6.38637 12.0619 6.41062 12.0635 6.43488 12.0651C6.52705 12.0699 6.62084 12.0715 6.71624 12.0715C8.03413 12.0715 9.27764 11.6213 10.2673 10.8437C9.75951 10.4382 9.38598 9.91289 9.04155 9.36046L9.0464 9.36366Z" fill="#BFA378" stroke="#BFA378" stroke-width="0.5" stroke-miterlimit="10"/>
</svg>
