<svg width="205" height="23" viewBox="0 0 205 23" fill="none" xmlns="http://www.w3.org/2000/svg">
<path d="M17.046 22.8359C17.046 22.2154 17.0598 21.5949 17.0829 20.9651V19.8584C17.0829 19.3768 17.0091 19.0758 16.866 18.9554C16.7645 18.9229 16.4923 18.9044 16.0585 18.9044H15.1864C14.8033 18.9229 14.508 18.9322 14.3142 18.9322H7.90464L5.55585 19.1128C5.22822 19.1452 4.44375 19.2008 3.19321 19.2795C2.52411 19.3119 2.16418 19.3304 2.11342 19.3304C1.55506 19.3304 1.24127 19.2425 1.16282 19.0619C1.13052 18.9229 1.11206 18.8303 1.11206 18.7794C1.11206 18.4969 1.3151 18.3209 1.71657 18.2515C1.86423 18.233 2.24262 18.2098 2.86097 18.1728C3.36395 18.1542 3.71465 18.1172 3.89923 18.057C4.24994 17.969 4.45759 17.8069 4.51758 17.5661V2.2244C4.40683 2.07621 4.18533 1.96971 3.84847 1.90025C3.49777 1.83078 2.85174 1.69649 1.91038 1.502C1.67965 1.45106 1.36125 1.39086 0.959787 1.3214C0.627541 1.21952 0.456802 1.07597 0.456802 0.895369C0.456802 0.807385 0.539863 0.682354 0.701371 0.511016C0.802891 0.418401 0.959784 0.367462 1.16282 0.367462C1.20435 0.367462 1.78117 0.455447 2.88404 0.636047C3.95461 0.807385 5.06671 0.895369 6.22495 0.895369C7.3832 0.895369 8.32917 0.835169 9.21977 0.71477C10.1196 0.575847 10.5857 0.506385 10.618 0.506385C10.8579 0.506385 11.0933 0.59437 11.324 0.765708C11.4763 0.886108 11.5547 1.0204 11.5547 1.16395C11.5547 1.53442 11.1533 1.7428 10.3457 1.79374H9.92118C9.43204 1.79374 8.8137 1.81226 8.05692 1.84468C7.84465 1.87709 7.72006 1.98823 7.68314 2.16883L7.65545 15.3017C7.65545 16.376 7.74313 17.1169 7.9231 17.5337C8.01077 17.7236 8.25072 17.8162 8.6568 17.8162C8.77678 17.8162 9.17824 17.7838 9.86581 17.7143C13.3267 17.3624 15.4402 16.9132 16.2108 16.3621C16.2615 16.3297 16.3631 16.2325 16.5199 16.0796L16.6353 15.95C16.8568 15.6675 17.3275 15.4915 18.0474 15.4221V22.8359H17.046Z" fill="white"/>
<path d="M29.5975 19.2008C28.4762 19.2008 27.5717 18.9507 26.8888 18.4552C26.7411 18.3348 26.5427 18.1589 26.2843 17.9273C26.1043 17.8069 25.9613 17.7467 25.8597 17.7467C25.7398 17.7467 25.5736 17.8162 25.3568 17.9551C25.1768 18.0848 24.9599 18.2608 24.7015 18.483C23.9493 18.997 23.0956 19.2564 22.1451 19.2564C21.1437 19.2564 20.4238 19.1221 19.9855 18.8581C19.5471 18.5895 19.3302 18.1311 19.3302 17.4782C19.3302 16.7233 19.7686 16.0009 20.6407 15.311C21.2406 14.871 21.9005 14.5237 22.6203 14.269C23.1602 14.0884 23.9032 13.806 24.8538 13.417C25.5552 13.065 25.9059 12.7038 25.9059 12.3334C25.9059 11.56 25.6059 10.9349 25.0061 10.4625C24.5169 10.0597 23.9586 9.85592 23.3217 9.85592C23.2018 9.85592 22.9664 9.90685 22.6157 10.0087C22.2327 10.1477 22.0389 10.2681 22.0389 10.3699C22.0389 10.4301 22.1635 10.5135 22.4127 10.6154C22.6711 10.7172 22.7957 10.8701 22.7957 11.0645C22.7957 11.2035 22.6019 11.3702 22.2189 11.5693C21.8174 11.7592 21.4298 11.8518 21.0606 11.8518C20.4284 11.8518 19.9439 11.5647 19.6071 10.9858C19.5194 10.8747 19.4779 10.7219 19.4779 10.5366C19.4779 9.91611 20.1377 9.36505 21.4575 8.87419C22.5788 8.47132 23.6217 8.26756 24.5907 8.26756C25.3106 8.26756 26.1505 8.48521 27.1103 8.92513C28.2824 9.44841 28.8684 10.055 28.8684 10.7404V15.8342C28.8684 16.0472 28.933 16.288 29.0622 16.5566C29.2006 16.8298 29.3575 17.0151 29.5375 17.1123C30.0405 17.3531 30.5066 17.5291 30.9265 17.6402C31.1757 17.7097 31.3003 17.8579 31.3003 18.0894C31.3003 18.2978 31.0834 18.534 30.645 18.7979C30.2158 19.0665 29.8651 19.1962 29.5929 19.1962L29.5975 19.2008ZM25.7813 14.1486C24.8815 14.5006 24.097 14.8896 23.4325 15.311C22.6619 15.825 22.2789 16.2371 22.2789 16.5335C22.2789 17.3392 22.648 17.7467 23.3817 17.7467C23.7832 17.7467 24.2077 17.5893 24.6553 17.2698C25.4444 16.7048 25.8367 15.8666 25.8367 14.7553C25.8367 14.5654 25.8182 14.3663 25.7859 14.1486H25.7813Z" fill="white"/>
<path d="M56.8647 7.94802L56.9154 7.92024C57.3538 7.48031 57.6861 7.26267 57.9168 7.26267C58.0368 7.26267 58.1706 7.31361 58.3136 7.41548C58.4659 7.53588 58.5444 7.67017 58.5444 7.81373C58.5444 7.95265 58.3598 8.13788 57.9906 8.36942C57.603 8.5778 57.4138 8.76766 57.4138 8.94827C57.4138 8.9992 57.5107 9.12424 57.7091 9.32336C58.9181 10.5366 59.5227 11.7545 59.5227 12.9863C59.5227 14.2181 59.3565 14.9497 59.0197 15.3434C58.2813 16.2047 57.3954 16.8761 56.3617 17.367C55.1204 17.969 54.1375 18.3626 53.4223 18.5525C52.5224 18.8025 51.4196 18.9276 50.109 18.9276C47.7879 18.9276 45.8129 18.1264 44.1886 16.5288C42.5781 14.9405 41.7752 13.028 41.7752 10.7913V8.39257C41.7752 6.71624 42.4858 5.10473 43.9071 3.55805C45.7483 1.55756 48.2955 0.552689 51.5488 0.552689C52.467 0.552689 53.533 0.98335 54.7605 1.84004C55.9418 2.66432 56.6709 3.07646 56.9431 3.07646C57.1416 3.07646 57.4461 2.97458 57.866 2.77546C58.286 2.5717 58.5536 2.47446 58.6736 2.47446C58.9228 2.47446 59.0981 2.70136 59.1996 3.15981L54.7051 5.37795C54.4651 5.27607 54.1514 5.0399 53.7683 4.66944C53.5192 4.44716 53.1315 4.08596 52.6009 3.58584C51.4795 2.62264 50.2982 2.14104 49.0569 2.14104C48.4063 2.14104 47.7925 2.33553 47.2203 2.71989C46.7404 3.01162 46.3805 3.34967 46.1405 3.73865C45.7714 4.32213 45.3976 4.90098 45.01 5.46593C44.6593 6.10961 44.4839 6.77644 44.4839 7.46179V9.20296C44.4839 10.9812 45.1115 12.6112 46.3713 14.0884C47.7095 15.6768 49.3061 16.5335 51.1611 16.6539C51.4011 16.6724 51.678 16.6816 51.9964 16.6816C53.916 16.6816 55.5726 16.3297 56.9662 15.6258L57.017 15.5749C57.0954 15.5054 57.16 15.4174 57.2108 15.3063C57.28 15.0979 57.3123 14.7506 57.3123 14.2644C57.2108 13.19 56.7909 12.2732 56.0525 11.5183C55.4342 10.9163 54.802 10.5644 54.1513 10.4625L50.2613 11.9583C49.9429 11.736 49.786 11.4489 49.786 11.0923C49.9844 11.0599 50.8843 10.7404 52.4947 10.1384C54.1836 9.50396 55.1204 9.11497 55.3096 8.97605C55.5911 8.79545 56.1079 8.45277 56.8647 7.94339V7.94802Z" fill="white"/>
<path d="M71.0728 19.2008C69.9515 19.2008 69.047 18.9507 68.3641 18.4552C68.2164 18.3348 68.018 18.1589 67.7596 17.9273C67.5796 17.8069 67.4365 17.7467 67.335 17.7467C67.215 17.7467 67.0489 17.8162 66.832 17.9551C66.6521 18.0848 66.4352 18.2608 66.1768 18.483C65.4246 18.997 64.5709 19.2564 63.6203 19.2564C62.619 19.2564 61.8991 19.1221 61.4607 18.8581C61.0224 18.5895 60.8055 18.1311 60.8055 17.4782C60.8055 16.7233 61.2439 16.0009 62.116 15.311C62.7159 14.871 63.3758 14.5237 64.0956 14.269C64.6355 14.0884 65.3785 13.806 66.3291 13.417C67.0305 13.065 67.3812 12.7038 67.3812 12.3334C67.3812 11.56 67.0812 10.9349 66.4813 10.4625C65.9922 10.0597 65.4338 9.85592 64.797 9.85592C64.6771 9.85592 64.4417 9.90685 64.091 10.0087C63.708 10.1477 63.5142 10.2681 63.5142 10.3699C63.5142 10.4301 63.6388 10.5135 63.888 10.6154C64.1464 10.7172 64.271 10.8701 64.271 11.0645C64.271 11.2035 64.0772 11.3702 63.6942 11.5693C63.2927 11.7592 62.9051 11.8518 62.5359 11.8518C61.9037 11.8518 61.4192 11.5647 61.0823 10.9858C60.9947 10.8747 60.9531 10.7219 60.9531 10.5366C60.9531 9.91611 61.613 9.36505 62.9328 8.87419C64.0541 8.47132 65.097 8.26756 66.066 8.26756C66.7859 8.26756 67.6257 8.48521 68.5856 8.92513C69.7576 9.44841 70.3437 10.055 70.3437 10.7404V15.8342C70.3437 16.0472 70.4083 16.288 70.5375 16.5566C70.6759 16.8298 70.8328 17.0151 71.0128 17.1123C71.5158 17.3531 71.9818 17.5291 72.4018 17.6402C72.6509 17.7097 72.7755 17.8579 72.7755 18.0894C72.7755 18.2978 72.5587 18.534 72.1203 18.7979C71.6911 19.0665 71.3404 19.1962 71.0682 19.1962L71.0728 19.2008ZM67.2566 14.1486C66.3567 14.5006 65.5723 14.8896 64.9078 15.311C64.1372 15.825 63.7542 16.2371 63.7542 16.5335C63.7542 17.3392 64.1233 17.7467 64.857 17.7467C65.2585 17.7467 65.683 17.5893 66.1306 17.2698C66.9197 16.7048 67.3119 15.8666 67.3119 14.7553C67.3119 14.5654 67.2935 14.3663 67.2612 14.1486H67.2566Z" fill="white"/>
<path d="M82.5445 11.0182C82.2953 11.0182 82.0046 10.8932 81.6723 10.6431C81.3032 10.3606 80.9848 10.1986 80.7079 10.1662C80.5602 10.1847 80.1957 10.4023 79.605 10.8237C78.9867 11.2729 78.6821 11.5183 78.6821 11.5693V17.8995C78.6313 18.0987 78.3129 18.3719 77.7315 18.7238C77.0993 19.1082 76.5779 19.3027 76.1764 19.3027C75.918 19.2517 75.7934 18.4413 75.7934 16.8669C75.7934 16.3621 75.8119 15.5795 75.8442 14.5191C75.8626 13.4633 75.8719 12.7409 75.8719 12.3519C75.8719 11.861 75.8534 11.4998 75.8211 11.2683C75.7288 10.6478 75.3366 10.2264 74.6536 10.0041C74.2706 9.87442 74.0768 9.67993 74.0768 9.42524C74.0953 9.28168 74.2614 9.17981 74.5798 9.12887C74.7598 9.11034 75.0689 9.07793 75.5027 9.02699C76.0057 8.95753 76.601 8.82324 77.2885 8.62874C77.7269 8.50834 78.0176 8.44814 78.1607 8.44814C78.4791 8.51761 78.636 8.7121 78.636 9.02699C78.636 9.11497 78.6267 9.24464 78.6083 9.42524C78.576 9.6151 78.5575 9.74476 78.5575 9.81422C78.5575 9.9763 78.6267 10.0828 78.7652 10.1384C78.7975 10.1384 79.2358 9.84664 80.0757 9.26316C80.9755 8.6519 81.557 8.34627 81.8246 8.34627C82.0138 8.34627 82.3414 8.43425 82.8121 8.60559C83.3612 8.78619 83.6612 8.97142 83.7119 9.16128C83.5412 9.51322 83.3843 9.81422 83.2366 10.0643C82.8859 10.6848 82.6598 10.9997 82.5537 11.0182H82.5445Z" fill="white"/>
<path d="M96.2219 17.668C96.0097 17.7699 95.6543 17.9644 95.1698 18.2468L94.8745 18.4274L94.27 18.8257C93.6516 19.2286 93.3102 19.4323 93.241 19.4323C92.8026 19.4323 92.5765 18.7284 92.558 17.3207C92.438 17.3531 91.9996 17.7004 91.2475 18.3533C90.3661 19.1082 89.5124 19.4879 88.691 19.4879C87.8696 19.4879 87.0713 19.0665 86.3515 18.2237C85.4332 17.1493 84.9763 15.6629 84.9763 13.7643V13.5466C85.0456 9.99944 86.7022 8.22123 89.9462 8.22123L92.4749 9.30483C92.4565 9.27704 92.4426 8.86954 92.4242 8.08231C92.3919 5.00748 92.2581 3.30799 92.0273 2.98847C91.8889 2.7986 91.5751 2.52076 91.0767 2.1503C90.5876 1.77984 90.343 1.51588 90.343 1.34918C90.343 1.2473 90.8045 1.08059 91.732 0.844422C92.7333 0.59436 93.5778 0.46933 94.2608 0.46933C94.7314 0.46933 94.9668 0.719391 94.9668 1.21488C94.9668 1.31676 94.9576 1.45105 94.9391 1.61313C94.9068 1.78447 94.8883 1.89561 94.8883 1.94654V16.7048C94.8883 16.9549 94.9529 17.103 95.0821 17.154C95.742 16.7326 96.1204 16.5242 96.2127 16.5242C96.5634 16.5242 96.7388 16.7187 96.7388 17.103C96.7388 17.3114 96.5634 17.492 96.2127 17.6587L96.2219 17.668ZM92.4334 12.1527C92.4334 11.5322 92.0827 10.8978 91.3813 10.2449C90.7999 9.70308 90.3984 9.43449 90.1723 9.43449C89.2402 9.43449 88.5203 9.80495 88.0127 10.5412C87.5651 11.1757 87.3436 11.9999 87.3436 13.0141C87.3436 14.1718 87.6112 15.2044 88.1419 16.1074C88.7003 17.0938 89.3924 17.5893 90.2231 17.5893C90.5415 17.5893 90.9752 17.3299 91.5336 16.8159C92.1335 16.2556 92.4334 15.7184 92.4334 15.2044V12.1481V12.1527Z" fill="white"/>
<path d="M106.591 10.5922C106.378 10.6941 106.134 10.8191 105.857 10.9673C105.137 11.3192 104.044 11.8842 102.567 12.6575C101.229 13.3984 100.564 13.9356 100.564 14.269C100.564 15.2137 100.841 16.0056 101.399 16.64C101.981 17.3439 102.775 17.6958 103.776 17.6958C104.228 17.6958 104.745 17.4689 105.322 17.0197C105.899 16.5705 106.272 16.3436 106.434 16.3436C106.572 16.3436 106.738 16.5196 106.937 16.8715C106.655 17.2049 106.18 17.7097 105.511 18.3811C104.09 19.085 102.978 19.437 102.17 19.437C101.099 19.437 100.181 19.0341 99.4106 18.2237C98.4923 17.2883 98.0354 16.0009 98.0354 14.3709C98.0354 14.32 98.0447 14.144 98.0631 13.843C98.2754 10.319 99.9551 8.5593 103.098 8.5593C103.79 8.5593 104.431 8.79546 105.013 9.2678C105.516 9.69846 105.825 9.91148 105.935 9.91148C105.986 9.91148 106.125 9.85128 106.351 9.72625C106.577 9.60122 106.743 9.54102 106.845 9.54102C107.112 9.54102 107.241 9.70773 107.241 10.0458C107.241 10.1662 107.025 10.3514 106.586 10.6015L106.591 10.5922ZM102.17 9.74014C101.519 9.74014 101.012 10.6802 100.643 12.5649C101.044 12.4121 101.607 12.1574 102.327 11.8055C103.116 11.435 103.508 11.2174 103.508 11.1479C103.508 11.046 103.305 10.7867 102.904 10.3746C102.484 9.95316 102.239 9.74477 102.17 9.74477V9.74014Z" fill="white"/>
<path d="M132.714 18.5849C131.551 19.048 130.346 19.2795 129.105 19.2795C127.947 19.2795 126.345 19.0063 124.287 18.4552C123.697 18.3024 123.023 18.2237 122.271 18.2237C122.059 18.2237 121.74 18.2422 121.32 18.2746L118.916 18.7007C118.847 18.7007 118.768 18.6266 118.685 18.483C118.584 18.3626 118.533 18.2422 118.533 18.1218C118.533 17.9736 118.612 17.844 118.764 17.7236L121.846 16.8484C121.934 16.677 121.976 15.862 121.976 14.3987C121.976 12.7733 121.911 10.8839 121.791 8.72136C121.666 6.55879 121.537 5.13715 121.399 4.44716C121.297 3.8961 120.928 3.52564 120.296 3.34041C120.227 3.32189 119.659 3.2339 118.588 3.07182C118.007 2.98384 117.716 2.80324 117.716 2.51613C117.716 2.32627 117.79 2.1503 117.933 1.98823C118.035 1.83541 118.21 1.75669 118.459 1.75669C118.579 1.75669 119.008 1.8493 119.742 2.03916C120.411 2.21976 121.057 2.30775 121.68 2.30775C122.769 2.30775 123.664 2.11326 124.366 1.7289C124.597 1.58072 125.021 1.36307 125.639 1.07133C127.112 0.469335 128.311 0.168335 129.234 0.168335C130.337 0.168335 131.325 0.460073 132.187 1.04355C133.166 1.72427 133.756 2.68747 133.973 3.94241C134.006 4.15079 134.024 4.41938 134.024 4.75279C134.024 6.26705 133.226 7.54051 131.634 8.58243C131.505 8.6519 131.32 8.76766 131.08 8.92974C132.321 9.24926 133.355 9.94388 134.176 11.0182C134.929 11.9814 135.307 12.9631 135.307 13.968V14.019C135.288 16.3992 134.426 17.9227 132.714 18.5803V18.5849ZM129.889 10.2449C129.47 10.0735 128.874 9.8559 128.104 9.58731C127.453 9.3743 127.065 9.15202 126.95 8.92974C126.95 8.78156 127.158 8.6519 127.578 8.5315C127.827 8.46203 128.21 8.32311 128.736 8.10547C129.876 7.54514 130.499 6.66067 130.609 5.45204C130.609 4.41012 130.309 3.57658 129.709 2.93753C129.137 2.31701 128.367 2.01138 127.398 2.01138C127.278 2.01138 127.084 2.0299 126.821 2.06232C125.981 2.17346 125.395 2.60875 125.063 3.36356C124.795 3.93778 124.666 4.82225 124.666 6.00773C124.666 6.33651 124.684 6.83201 124.717 7.50347C124.735 8.17493 124.744 8.67042 124.744 8.98531C124.744 9.99019 124.735 11.1062 124.717 12.338C124.684 13.5837 124.666 14.3477 124.666 14.6302C124.666 15.9176 124.85 16.7928 125.22 17.2466C125.672 17.8301 126.604 18.1218 128.007 18.1218C129.11 18.1218 130.005 17.9551 130.692 17.6171C131.846 17.0521 132.427 15.7184 132.427 13.6207V13.2364C132.34 11.9305 131.5 10.9349 129.899 10.2449H129.889Z" fill="white"/>
<path d="M142.196 17.2929C141.126 18.1357 139.801 18.7053 138.228 19.0063C138.136 18.9183 138.085 17.6032 138.085 15.047C138.085 12.4908 138.103 8.79083 138.136 4.29436C138.136 3.89148 137.716 3.28485 136.876 2.4791C136.687 2.28924 136.594 2.13179 136.594 2.00213C136.867 1.81227 137.48 1.55758 138.431 1.24268C139.4 0.909269 140.046 0.73793 140.369 0.73793C140.567 0.73793 140.664 0.79813 140.664 0.91853C140.734 1.40013 140.766 2.66896 140.766 4.72039V6.07257L140.715 17.0799C141.518 16.6353 142.003 16.4084 142.169 16.4084C142.45 16.4501 142.593 16.5659 142.593 16.7557C142.593 16.8947 142.459 17.0706 142.196 17.2837V17.2929Z" fill="white"/>
<path d="M154.139 19.2008C153.017 19.2008 152.113 18.9507 151.43 18.4552C151.282 18.3348 151.084 18.1589 150.826 17.9273C150.646 17.8069 150.503 17.7467 150.401 17.7467C150.281 17.7467 150.115 17.8162 149.898 17.9551C149.718 18.0848 149.501 18.2608 149.243 18.483C148.491 18.997 147.637 19.2564 146.686 19.2564C145.685 19.2564 144.965 19.1221 144.527 18.8581C144.088 18.5895 143.871 18.1311 143.871 17.4782C143.871 16.7233 144.31 16.0009 145.182 15.311C145.782 14.871 146.442 14.5237 147.162 14.269C147.701 14.0884 148.444 13.806 149.395 13.417C150.096 13.065 150.447 12.7038 150.447 12.3334C150.447 11.56 150.147 10.9349 149.547 10.4625C149.058 10.0597 148.5 9.85592 147.863 9.85592C147.743 9.85592 147.508 9.90685 147.157 10.0087C146.774 10.1477 146.58 10.2681 146.58 10.3699C146.58 10.4301 146.705 10.5135 146.954 10.6154C147.212 10.7172 147.337 10.8701 147.337 11.0645C147.337 11.2035 147.143 11.3702 146.76 11.5693C146.359 11.7592 145.971 11.8518 145.602 11.8518C144.97 11.8518 144.485 11.5647 144.148 10.9858C144.061 10.8747 144.019 10.7219 144.019 10.5366C144.019 9.91611 144.679 9.36505 145.999 8.87419C147.12 8.47132 148.163 8.26756 149.132 8.26756C149.852 8.26756 150.692 8.48521 151.652 8.92513C152.824 9.44841 153.41 10.055 153.41 10.7404V15.8342C153.41 16.0472 153.474 16.288 153.603 16.5566C153.742 16.8298 153.899 17.0151 154.079 17.1123C154.582 17.3531 155.048 17.5291 155.468 17.6402C155.717 17.7097 155.841 17.8579 155.841 18.0894C155.841 18.2978 155.625 18.534 155.186 18.7979C154.757 19.0665 154.406 19.1962 154.134 19.1962L154.139 19.2008ZM150.327 14.1486C149.427 14.5006 148.643 14.8896 147.978 15.311C147.208 15.825 146.825 16.2371 146.825 16.5335C146.825 17.3392 147.194 17.7467 147.928 17.7467C148.329 17.7467 148.754 17.5893 149.201 17.2698C149.99 16.7048 150.383 15.8666 150.383 14.7553C150.383 14.5654 150.364 14.3663 150.332 14.1486H150.327Z" fill="white"/>
<path d="M167.396 17.3716C167.498 17.3716 167.784 17.1771 168.259 16.7928C168.739 16.4223 169.071 16.2371 169.261 16.2371C169.45 16.2371 169.597 16.3899 169.685 16.6863C169.104 17.1262 168.587 17.5013 168.13 17.8208C167.009 18.5756 166.261 18.9878 165.897 19.0572C165.477 19.0572 165.269 18.8905 165.269 18.5525C165.269 18.4321 165.287 18.2654 165.32 18.0477C165.37 17.8255 165.398 17.6634 165.398 17.5569C165.43 16.9734 165.449 16.4455 165.449 15.9731C165.449 12.1342 164.766 10.2125 163.405 10.2125C163.086 10.2125 162.629 10.3884 162.03 10.7404C161.711 10.921 161.522 11.1247 161.453 11.347C161.365 11.5971 161.324 12.1435 161.324 12.9817C161.324 13.0326 161.333 13.2503 161.351 13.6392C161.37 14.0329 161.379 14.3802 161.379 14.6719C161.379 17.6865 160.544 19.2564 158.873 19.3768C158.841 19.1267 158.822 18.7562 158.822 18.27C158.822 18.0199 158.832 17.5615 158.85 16.89V15.3063C158.85 12.8983 158.656 11.4674 158.273 11.0136C158.024 10.7311 157.77 10.5088 157.517 10.3421C157.267 10.2032 157.143 10.0134 157.143 9.76329C158.112 9.08257 158.776 8.74452 159.145 8.74452C159.478 8.81398 159.838 9.07331 160.225 9.53175C160.608 10.0041 160.848 10.2495 160.931 10.268C161.351 10.0458 161.808 9.80034 162.306 9.53175C163.299 8.98069 164.014 8.67969 164.452 8.62875C166.686 8.62875 167.812 10.1893 167.83 13.3058C167.83 13.7457 167.756 14.4589 167.613 15.4452C167.475 16.4872 167.405 17.1262 167.405 17.367L167.396 17.3716Z" fill="white"/>
<path d="M175.642 19.1637C174 19.1637 172.772 18.6914 171.969 17.7467C171.3 16.9734 170.968 15.9407 170.968 14.6534C170.968 12.9863 171.369 11.56 172.177 10.3745C173.127 9.00847 174.452 8.32312 176.145 8.32312C176.694 8.32312 177.387 8.48983 178.227 8.82787C179.265 9.23075 179.782 9.70309 179.782 10.2449C179.782 10.5135 179.325 10.9812 178.406 11.648C178.337 11.648 178.254 11.5971 178.148 11.4952C178.079 11.4165 178.01 11.347 177.94 11.2775C176.801 10.0828 175.873 9.48544 175.153 9.48544C174.655 9.48544 174.24 9.89758 173.907 10.7219C173.589 11.4767 173.432 12.3056 173.432 13.2086C173.432 14.4543 173.732 15.473 174.332 16.2649C175.001 17.1494 175.965 17.5939 177.221 17.5939C177.622 17.5939 178.097 17.3114 178.642 16.7511C179.186 16.1862 179.496 15.9083 179.574 15.9083C179.675 15.9083 179.786 15.9778 179.906 16.1167C180.054 16.2695 180.123 16.3853 180.123 16.464C180.123 16.6863 179.666 17.1586 178.748 17.881C177.677 18.7423 176.639 19.1684 175.638 19.1684L175.642 19.1637Z" fill="white"/>
<path d="M192.652 17.0614C192.804 17.0429 193.27 16.7326 194.04 16.1352C194.359 16.3853 194.516 16.5937 194.516 16.765C194.516 16.978 194.322 17.191 193.939 17.3948C193.69 17.5245 193.307 17.7328 192.785 18.0246C192.485 18.2376 192.185 18.446 191.885 18.6451C191.484 18.9044 191.17 19.0294 190.949 19.0294C190.769 19.0294 190.635 18.9507 190.552 18.7979C190.483 18.6682 190.45 18.2978 190.45 17.6912C190.45 17.4272 190.46 17.0706 190.478 16.6353V15.8342C190.478 14.0051 190.353 12.6853 190.104 11.8749C189.735 10.5922 189.006 9.89758 187.922 9.78644C187.769 9.78644 187.4 9.93 186.819 10.2125C186.247 10.4949 185.919 10.6894 185.84 10.7913C185.808 10.8237 185.79 11.2405 185.79 12.0416C185.79 12.514 185.808 13.366 185.84 14.5932C185.859 15.8296 185.868 16.6955 185.868 17.1864C185.868 17.7606 185.859 18.1589 185.84 18.3719C185.388 18.6219 184.539 18.9831 183.298 19.4555C183.219 19.3166 183.183 18.7701 183.183 17.8162C183.183 17.2512 183.206 15.6953 183.247 13.1484C183.279 10.5968 183.298 8.5315 183.298 6.96168V6.09572C183.298 4.68797 183.21 3.7896 183.03 3.40062C182.91 3.11814 182.467 2.71526 181.692 2.18736C181.512 2.05769 181.424 1.95119 181.424 1.8632C181.424 1.7428 181.531 1.67334 181.747 1.65482C181.997 1.6224 182.555 1.48811 183.432 1.25657C184.221 1.04356 184.765 0.932419 185.065 0.932419C185.314 0.932419 185.499 1.00651 185.619 1.15006C185.587 2.83566 185.568 4.37308 185.568 5.76694C185.568 8.31849 185.587 9.61047 185.619 9.64752C185.637 9.62899 185.721 9.55953 185.877 9.43913C186.879 8.6658 187.82 8.28144 188.701 8.28144C189.583 8.28144 190.483 8.61486 191.373 9.28632C192.236 9.93 192.67 12.1157 192.67 15.8481V17.0475L192.652 17.0614Z" fill="white"/>
<path d="M204.349 10.5922C204.137 10.6941 203.892 10.8191 203.616 10.9673C202.896 11.3192 201.802 11.8842 200.325 12.6575C198.987 13.3984 198.323 13.9356 198.323 14.269C198.323 15.2137 198.6 16.0056 199.158 16.64C199.739 17.3439 200.533 17.6958 201.534 17.6958C201.987 17.6958 202.504 17.4689 203.08 17.0197C203.657 16.5705 204.031 16.3436 204.192 16.3436C204.331 16.3436 204.497 16.5196 204.695 16.8715C204.414 17.2049 203.939 17.7097 203.27 18.3811C201.848 19.085 200.736 19.437 199.929 19.437C198.858 19.437 197.94 19.0341 197.169 18.2237C196.251 17.2883 195.794 16.0009 195.794 14.3709C195.794 14.32 195.803 14.144 195.822 13.843C196.034 10.319 197.714 8.5593 200.856 8.5593C201.548 8.5593 202.19 8.79546 202.771 9.2678C203.274 9.69846 203.583 9.91148 203.694 9.91148C203.745 9.91148 203.883 9.85128 204.109 9.72625C204.335 9.60122 204.502 9.54102 204.603 9.54102C204.871 9.54102 205 9.70773 205 10.0458C205 10.1662 204.783 10.3514 204.345 10.6015L204.349 10.5922ZM199.933 9.74014C199.283 9.74014 198.775 10.6802 198.406 12.5649C198.807 12.4121 199.37 12.1574 200.09 11.8055C200.879 11.435 201.271 11.2174 201.271 11.1479C201.271 11.046 201.068 10.7867 200.667 10.3746C200.247 9.95316 200.002 9.74477 199.933 9.74477V9.74014Z" fill="white"/>
</svg>
