<svg width="85" height="55" viewBox="0 0 85 55" fill="none" xmlns="http://www.w3.org/2000/svg">
<path d="M1 50.3513C1 50.3513 8.89709 50.649 30.1468 50.3513C51.1065 50.0537 58.9578 27.8133 58.9578 27.8133C50.9386 8.20632 35.732 4.62584 29.895 4.38233C27.0413 4.26509 2.00717 4.38233 2.00717 4.38233" stroke="white" stroke-miterlimit="10"/>
<path d="M29.1014 4.37319C29.1014 4.37319 33.7634 -0.983994 42.8126 4.37319C51.9 9.75744 55.3793 13.9963 60.2015 21.0671C65.3747 28.6609 69.3728 37.337 69.3728 37.337" stroke="white" stroke-miterlimit="10"/>
<path d="M30.1469 50.3513C30.1469 50.3513 37.96 55.7085 45.9792 50.6038C53.9984 45.4901 61.5597 33.7747 61.5597 33.7747" stroke="white" stroke-miterlimit="10"/>
<path d="M58.9655 27.8132C58.9655 27.8132 64.1386 39.0957 65.4434 41.7202" stroke="white" stroke-miterlimit="10"/>
<path d="M46.9253 49.9635C46.9253 49.9635 62.9102 51.9837 75.4235 27.8042" stroke="white" stroke-miterlimit="10"/>
<path d="M42.6525 52.1731C42.6525 52.1731 62.2006 61.9224 77.7202 34.7667" stroke="white" stroke-miterlimit="10"/>
<path d="M44.3311 5.29325C44.3311 5.29325 56.3179 3.76907 65.3289 13.4553" stroke="white" stroke-miterlimit="10"/>
<path d="M40.8289 3.33611C40.8289 3.33611 52.9606 -4.43813 68.648 8.37764" stroke="white" stroke-miterlimit="10"/>
<path d="M69.8 17.685C69.8 17.685 78.2389 30.2934 78.7425 38.239C79.246 46.1846 74.3323 44.5972 72.5698 42.8025" stroke="white" stroke-miterlimit="10"/>
<path d="M72.9055 12.5173C72.9055 12.5173 88.6157 36.2909 81.8937 46.4732C76.3924 54.8156 68.564 46.5904 68.564 46.5904" stroke="white" stroke-miterlimit="10"/>
<path d="M77.7124 20.959C77.7124 20.959 80.8025 13.8611 77.3995 11.6245C73.9965 9.3878 71.4786 14.258 70.5935 15.692C69.7085 17.126 64.3369 27.7051 64.3369 27.7051" stroke="white" stroke-miterlimit="10"/>
<path d="M80.635 27.3984C80.635 27.3984 87.5859 13.9964 81.1385 7.5479C74.5843 0.991208 68.3201 8.33254 66.733 11.0382C65.0544 13.8972 61.1783 22.5282 61.1783 22.5282" stroke="white" stroke-miterlimit="10"/>
</svg>
