<svg width="138" height="23" viewBox="0 0 138 23" fill="none" xmlns="http://www.w3.org/2000/svg">
<path d="M65.8904 10.0642C66.0406 9.86892 66.3178 9.51278 66.468 8.92688C66.5488 8.63968 66.595 8.30652 66.5719 7.96187C66.5488 7.60574 66.4911 7.29555 66.3063 6.89346C65.9597 6.11226 65.1743 5.2966 64.077 4.7107C63.5226 4.43498 62.922 4.20521 62.2636 4.06735C61.5937 3.9295 60.8775 3.86057 60.1383 3.87205C57.5395 3.90652 54.7211 4.77963 52.0068 5.71017C49.2924 6.69816 46.6243 7.91592 43.9908 9.23707C40.3062 11.0867 36.8526 12.9133 33.4452 14.4068C30.0494 15.9003 26.7344 17.0835 23.5003 17.7958C20.2661 18.5311 17.1475 18.7608 14.2137 18.5196C12.7468 18.3817 11.303 18.06 10.0209 17.4167C9.38559 17.095 8.78497 16.6815 8.2883 16.1875C7.76853 15.6935 7.32961 15.0271 7.16791 14.2919C6.82139 12.7984 7.61837 11.305 8.76187 10.6157C9.31629 10.2595 9.99777 10.0757 10.5522 9.99529C11.1182 9.90339 11.6726 9.83446 12.227 9.81148C14.4216 9.6966 16.4198 10.0412 18.1755 10.5123C19.9427 11.0063 21.4789 11.6381 22.8303 12.3159C24.1933 12.9937 25.3599 13.8209 26.1915 14.8089C27.0231 15.7854 27.439 16.9457 27.4621 17.9681C27.4967 19.0021 27.2195 19.8867 26.8268 20.576C26.0298 21.966 24.8979 22.4945 24.1586 22.7472C23.3848 23 22.865 22.977 22.5762 22.977C22.2875 22.9655 22.1951 22.9425 22.1951 22.9425C22.1951 22.9425 22.2875 22.9425 22.5762 22.9196C22.865 22.8851 23.3617 22.8506 24.0893 22.5519C24.7824 22.2533 25.7988 21.6788 26.4572 20.3807C26.7806 19.7373 26.9769 18.9217 26.9076 18.0026C26.8383 17.095 26.4456 16.107 25.6717 15.2569C24.8979 14.3953 23.8006 13.6715 22.4838 13.0627C21.1555 12.4538 19.6424 11.8794 17.9445 11.4428C16.2466 11.0292 14.3407 10.7535 12.3079 10.9029C11.7996 10.9373 11.2799 11.0063 10.7601 11.0982C10.2288 11.1901 9.80141 11.3164 9.39714 11.5807C8.60016 12.0862 8.12659 13.0741 8.3576 14.0162C8.47311 14.4872 8.75032 14.9123 9.15458 15.2914C9.5704 15.682 10.0555 16.0151 10.5984 16.2794C11.6841 16.8193 12.9778 17.095 14.3407 17.1984C17.0898 17.3822 20.0929 17.141 23.1884 16.4057C26.2955 15.682 29.518 14.5217 32.833 13.0282C36.1596 11.5462 39.59 9.70809 43.2862 7.8355C45.9313 6.49137 48.5879 5.15874 51.3138 3.96396C52.6767 3.36657 54.0628 2.81513 55.4604 2.29816C56.8695 1.79268 58.3364 1.34464 59.9073 1.11487C60.7967 0.977015 61.7323 0.931062 62.6563 0.999991C63.6035 1.06892 64.5275 1.27571 65.4053 1.58589C67.1494 2.21775 68.7319 3.37806 69.7021 4.91748C70.1872 5.65273 70.5337 6.57179 70.6608 7.38746C70.7994 8.21461 70.7878 8.99581 70.6723 9.6966C70.4644 11.0982 69.8407 12.1895 69.2978 12.8444C68.651 13.6486 67.727 14.2804 66.7567 14.6021C65.7865 14.9238 64.8162 14.9582 63.95 14.7859C62.2058 14.4757 60.8544 13.2924 60.3231 12.1666C59.7571 11.0407 59.7918 10.0298 59.9882 9.40939C60.1961 8.77754 60.5541 8.5248 60.8544 8.55926C61.4551 8.63968 61.8709 9.6966 62.8527 10.3285C63.719 10.9373 65.2321 10.9258 65.8673 10.0298L65.8904 10.0642Z" fill="#BFA378"/>
<path d="M6.68279 17.6005C7.16791 17.8647 8.04574 18.4162 9.37404 18.8757C10.6908 19.3467 12.458 19.7029 14.3523 19.8407C17.7019 20.0705 21.2595 19.7718 24.69 19.0136C29.4949 17.9566 33.6185 16.4747 37.1413 14.9123C38.9086 14.1426 40.491 13.2809 42.0965 12.5572C43.6905 11.8334 45.3306 11.3279 46.913 11.259C48.4955 11.1786 50.0432 11.5462 51.1983 12.3504C52.3533 13.1316 53.1503 14.2574 53.3928 15.4522C53.647 16.6585 53.3235 17.7728 52.8153 18.6C52.3071 19.4386 51.6025 20.0245 50.8748 20.3577C50.1356 20.6794 49.3964 20.7598 48.7842 20.6794C48.1605 20.5989 47.6407 20.4036 47.2249 20.1854C46.3817 19.7258 45.9428 19.1744 45.6656 18.7608C45.1689 17.9107 45.2382 17.6465 45.2151 17.658C45.2382 17.6465 45.2613 17.8992 45.8388 18.6345C46.1392 18.9791 46.6127 19.4501 47.4097 19.7948C48.1836 20.1279 49.3733 20.3692 50.5745 19.7373C51.1521 19.4157 51.7296 18.8987 52.1107 18.1749C52.4919 17.4627 52.6998 16.5551 52.4688 15.6475C52.2494 14.7399 51.5679 13.8439 50.5976 13.235C49.6389 12.6146 48.3684 12.3389 46.9823 12.4423C45.5963 12.5342 44.1525 13.0167 42.6394 13.729C41.1378 14.4412 39.5207 15.3603 37.7189 16.176C34.1382 17.8303 29.9339 19.3927 25.0134 20.507C21.4905 21.2997 18.0022 22.0005 14.4447 22.5634C12.4003 22.8736 10.275 22.9426 8.46156 22.6668C6.64813 22.4141 5.19278 21.8167 4.49975 21.4146C2.80183 20.4726 1.61213 18.9906 1.19632 17.7384C0.7574 16.4747 1.03461 15.5671 1.57748 15.3373C2.15501 15.0961 2.87113 15.4407 3.71432 15.8888C4.5113 16.3483 5.53929 16.9342 6.67124 17.5775L6.68279 17.6005Z" fill="#BFA378"/>
<path d="M59.8265 10.6386C60.0113 12.2815 61.5013 13.4533 63.153 13.2694C64.8047 13.0856 65.9828 11.6036 65.798 9.96083C65.6132 8.31801 64.1232 7.14621 62.4715 7.33002C60.8198 7.51383 59.6416 8.99581 59.8265 10.6386Z" fill="#BFA378"/>
<path d="M49.7035 17.4813C49.9405 16.2086 49.0952 14.9858 47.8156 14.7502C46.536 14.5145 45.3066 15.3552 45.0697 16.6279C44.8328 17.9006 45.678 19.1234 46.9576 19.359C48.2372 19.5947 49.4666 18.754 49.7035 17.4813Z" fill="#BFA378"/>
<path d="M73.0979 10.0642C72.9478 9.86892 72.6706 9.51278 72.5204 8.92688C72.4395 8.63968 72.3933 8.30652 72.4165 7.96187C72.4396 7.60574 72.4973 7.29555 72.6821 6.89346C73.0286 6.11226 73.8141 5.2966 74.9114 4.7107C75.4658 4.43498 76.0664 4.20521 76.7248 4.06735C77.3947 3.9295 78.1108 3.86057 78.8501 3.87205C81.4489 3.90652 84.2672 4.77963 86.9816 5.71017C89.6959 6.69816 92.3641 7.91592 94.9976 9.23707C98.6822 11.0867 102.136 12.9133 105.543 14.4068C108.939 15.9003 112.254 17.0835 115.488 17.7958C118.722 18.5311 121.841 18.7608 124.775 18.5196C126.242 18.3817 127.685 18.06 128.968 17.4167C129.603 17.095 130.203 16.6815 130.7 16.1875C131.22 15.6935 131.659 15.0271 131.82 14.2919C132.167 12.7984 131.37 11.305 130.227 10.6157C129.672 10.2595 128.991 10.0757 128.436 9.99529C127.87 9.90339 127.316 9.83446 126.761 9.81148C124.567 9.6966 122.569 10.0412 120.813 10.5123C119.046 11.0063 117.509 11.6381 116.158 12.3159C114.795 12.9937 113.628 13.8209 112.797 14.8089C111.965 15.7854 111.549 16.9457 111.526 17.9681C111.492 19.0021 111.769 19.8867 112.162 20.576C112.959 21.966 114.091 22.4945 114.83 22.7472C115.604 23 116.123 22.977 116.412 22.977C116.701 22.9655 116.793 22.9425 116.793 22.9425C116.793 22.9425 116.701 22.9425 116.412 22.9196C116.123 22.8851 115.627 22.8506 114.899 22.5519C114.206 22.2533 113.19 21.6788 112.531 20.3807C112.208 19.7373 112.011 18.9217 112.081 18.0026C112.15 17.095 112.543 16.107 113.317 15.2569C114.091 14.3953 115.188 13.6715 116.505 13.0627C117.833 12.4538 119.346 11.8794 121.044 11.4428C122.742 11.0292 124.648 10.7535 126.681 10.9029C127.189 10.9373 127.709 11.0063 128.228 11.0982C128.76 11.1901 129.187 11.3164 129.591 11.5807C130.388 12.0862 130.862 13.0741 130.631 14.0162C130.515 14.4872 130.238 14.9123 129.834 15.2914C129.418 15.682 128.933 16.0151 128.39 16.2794C127.304 16.8193 126.011 17.095 124.648 17.1984C121.899 17.3822 118.896 17.141 115.8 16.4057C112.693 15.682 109.47 14.5217 106.155 13.0282C102.829 11.5462 99.3983 9.70809 95.7022 7.8355C93.0571 6.49137 90.4005 5.15874 87.6746 3.96396C86.3117 3.36657 84.9256 2.81513 83.528 2.29816C82.1188 1.79268 80.6519 1.34464 79.0811 1.11487C78.1917 0.977015 77.2561 0.931062 76.3321 0.999991C75.3849 1.06892 74.4609 1.27571 73.583 1.58589C71.8389 2.21775 70.2565 3.37806 69.2863 4.91748C68.8012 5.65273 68.4546 6.57179 68.3276 7.38746C68.189 8.21461 68.2005 8.99581 68.316 9.6966C68.5239 11.0982 69.1477 12.1895 69.6905 12.8444C70.3374 13.6486 71.2614 14.2804 72.2316 14.6021C73.2019 14.9238 74.1721 14.9582 75.0384 14.7859C76.7825 14.4757 78.1224 13.2924 78.6652 12.1666C79.2312 11.0407 79.1966 10.0298 79.0002 9.40939C78.7923 8.77754 78.4342 8.5248 78.1339 8.55926C77.5333 8.63968 77.1175 9.6966 76.1357 10.3285C75.2694 10.9373 73.7563 10.9258 73.121 10.0298L73.0979 10.0642Z" fill="#BFA378"/>
<path d="M132.306 17.6005C131.82 17.8647 130.943 18.4162 129.614 18.8757C128.298 19.3467 126.53 19.7029 124.636 19.8407C121.286 20.0705 117.729 19.7718 114.298 19.0136C109.493 17.9566 105.37 16.4747 101.847 14.9123C100.08 14.1426 98.4974 13.2809 96.8919 12.5572C95.2979 11.8334 93.6577 11.3279 92.0753 11.259C90.4929 11.1786 88.9452 11.5462 87.7901 12.3504C86.6351 13.1316 85.8381 14.2574 85.5955 15.4522C85.3414 16.6585 85.6648 17.7728 86.173 18.6C86.6813 19.4386 87.3858 20.0245 88.1135 20.3577C88.8528 20.6794 89.592 20.7598 90.2042 20.6794C90.8279 20.5989 91.3477 20.4036 91.7635 20.1854C92.6067 19.7258 93.0456 19.1744 93.3228 18.7608C93.8195 17.9107 93.7502 17.6465 93.7733 17.658C93.7502 17.6465 93.7271 17.8992 93.1495 18.6345C92.8492 18.9791 92.3756 19.4501 91.5787 19.7948C90.8048 20.1279 89.6151 20.3692 88.4138 19.7373C87.8363 19.4157 87.2588 18.8987 86.8776 18.1749C86.4965 17.4627 86.2886 16.5551 86.5196 15.6475C86.739 14.7399 87.4205 13.8439 88.3907 13.235C89.3494 12.6146 90.62 12.3389 92.006 12.4423C93.3921 12.5342 94.8359 13.0167 96.349 13.729C97.8506 14.4412 99.4676 15.3603 101.27 16.176C104.85 17.8303 109.055 19.3927 113.975 20.507C117.498 21.2997 120.986 22.0005 124.544 22.5634C126.588 22.8736 128.713 22.9426 130.527 22.6668C132.34 22.4141 133.796 21.8167 134.489 21.4146C136.187 20.4726 137.376 18.9906 137.792 17.7384C138.219 16.4747 137.954 15.5671 137.411 15.3373C136.833 15.0961 136.117 15.4407 135.274 15.8888C134.477 16.3483 133.449 16.9342 132.317 17.5775L132.306 17.6005Z" fill="#BFA378"/>
<path d="M79.1735 10.6386C78.9887 12.2815 77.4987 13.4533 75.8469 13.2694C74.1952 13.0856 73.0171 11.6036 73.2019 9.96083C73.3867 8.31801 74.8767 7.14621 76.5284 7.33002C78.1801 7.51383 79.3583 8.99581 79.1735 10.6386Z" fill="#BFA378"/>
<path d="M93.9465 17.3248C93.7964 18.6115 92.6297 19.542 91.3361 19.3927C90.0424 19.2433 89.1069 18.083 89.257 16.7963C89.4072 15.5097 90.5738 14.5791 91.8674 14.7285C93.1611 14.8778 94.0967 16.0381 93.9465 17.3248Z" fill="#BFA378"/>
</svg>
